<?xml version="1.0" encoding="UTF-8" standalone="no"?>
<svg
   xmlns:dc="http://purl.org/dc/elements/1.1/"
   xmlns:cc="http://creativecommons.org/ns#"
   xmlns:rdf="http://www.w3.org/1999/02/22-rdf-syntax-ns#"
   xmlns:svg="http://www.w3.org/2000/svg"
   xmlns="http://www.w3.org/2000/svg"
   xmlns:sodipodi="http://sodipodi.sourceforge.net/DTD/sodipodi-0.dtd"
   xmlns:inkscape="http://www.inkscape.org/namespaces/inkscape"
   data-name="Layer 1"
   width="771.24847"
   height="747.97144"
   viewBox="0 0 771.24847 747.97143"
   version="1.1"
   id="svg136"
   sodipodi:docname="undraw_cart.svg"
   inkscape:version="0.92.4 (5da689c313, 2019-01-14)">
  <metadata
     id="metadata142">
    <rdf:RDF>
      <cc:Work
         rdf:about="">
        <dc:format>image/svg+xml</dc:format>
        <dc:type
           rdf:resource="http://purl.org/dc/dcmitype/StillImage" />
      </cc:Work>
    </rdf:RDF>
  </metadata>
  <defs
     id="defs140" />
  <sodipodi:namedview
     pagecolor="#ffffff"
     bordercolor="#666666"
     borderopacity="1"
     objecttolerance="10"
     gridtolerance="10"
     guidetolerance="10"
     inkscape:pageopacity="0"
     inkscape:pageshadow="2"
     inkscape:window-width="1920"
     inkscape:window-height="1016"
     id="namedview138"
     showgrid="false"
     inkscape:zoom="1.2620803"
     inkscape:cx="422.81874"
     inkscape:cy="242.37046"
     inkscape:window-x="1920"
     inkscape:window-y="27"
     inkscape:window-maximized="1"
     inkscape:current-layer="svg136" />
  <title
     id="title2">empty_cart</title>
  <path
     d="m 41.634,712.73796 c 12.42842,23.049 38.806,32.9435 38.806,32.9435 0,0 6.22712,-27.47543 -6.2013,-50.52448 -12.42842,-23.04905 -38.806,-32.9435 -38.806,-32.9435 0,0 -6.22711,27.47543 6.2013,50.52448 z"
     id="path4"
     inkscape:connector-curvature="0"
     style="fill:#2f2e41" />
  <path
     d="m 50.17653,705.15498 c 22.43841,13.49969 31.08016,40.3138 31.08016,40.3138 0,0 -27.73812,4.92679 -50.17653,-8.57291 C 8.64175,723.39617 0,696.58207 0,696.58207 c 0,0 27.73811,-4.92678 50.17653,8.57291 z"
     id="path6"
     inkscape:connector-curvature="0"
     style="fill:#8183f4" />
  <rect
     x="583.24847"
     y="113.90779"
     width="2"
     height="18.5"
     id="rect18"
     style="fill:#f2f2f2" />
  <rect
     x="708.24847"
     y="158.90779"
     width="2"
     height="18.5"
     id="rect22"
     style="fill:#f2f2f2" />
  <rect
     x="769.24847"
     y="158.90779"
     width="2"
     height="18.5"
     id="rect24"
     style="fill:#f2f2f2" />
  <rect
     x="694.24847"
     y="622.90778"
     width="2"
     height="18.5"
     id="rect28"
     style="fill:#f2f2f2" />
  <rect
     x="755.24847"
     y="622.90778"
     width="2"
     height="18.5"
     id="rect30"
     style="fill:#f2f2f2" />
  <rect
     x="723.24847"
     y="469.90778"
     width="2"
     height="18.5"
     id="rect46"
     style="fill:#f2f2f2" />
  <polygon
     points="360.356,617.861 145.18,617.861 134.727,596.084 136.263,595.347 146.252,616.157 362.06,616.157 362.06,702.184 125.274,702.184 125.274,700.481 360.356,700.481 "
     id="polygon50"
     style="fill:#2f2e41;stroke:#000000;stroke-width:1;stroke-miterlimit:4;stroke-dasharray:none;stroke-opacity:1"
     transform="matrix(0.97840862,0,0,0.96707408,7.8173737,19.60235)" />
  <circle
     cx="156.78851"
     cy="726.03302"
     r="17.88673"
     id="circle52"
     style="fill:#3f3d56" />
  <circle
     cx="333.10052"
     cy="726.03302"
     r="17.88673"
     id="circle54"
     style="fill:#3f3d56" />
  <circle
     cx="540.92725"
     cy="346.15302"
     r="11.07274"
     id="circle56"
     style="fill:#3f3d56" />
  <path
     d="M 387.38538,589.75318 H 121.23673 L 63.64844,401.51671 h 383.04412 l -0.34852,1.10753 z m -264.8885,-1.7035 H 386.136 L 444.37017,403.22017 H 65.95082 Z"
     id="path58"
     inkscape:connector-curvature="0"
     style="fill:#2f2e41;stroke:#000000;stroke-opacity:1" />
  <polygon
     points="132.842,579.958 82.26,413.015 418.701,413.015 418.395,413.998 366.61,579.958 "
     id="polygon60"
     style="opacity:0.42000002;fill:#8183f4;fill-opacity:1"
     transform="matrix(1,0,0,0.86236059,6,79.825078)" />
  <polygon
     points="449.818,384.263 461.059,341.894 526.448,341.894 526.448,343.598 462.37,343.598 451.465,384.7 "
     id="polygon62"
     style="fill:#2f2e41;stroke:#000000;stroke-width:1;stroke-miterlimit:4;stroke-dasharray:none;stroke-opacity:1"
     transform="matrix(0.96917996,0,0,1,13.86341,4)" />
  <rect
     x="82.2584"
     y="458.58386"
     width="345.29309"
     height="1.7035"
     id="rect64"
     style="fill:#2f2e41;stroke:#000000;stroke-opacity:1" />
  <rect
     x="101.45894"
     y="521.34375"
     width="306.31851"
     height="1.7035"
     id="rect66"
     style="fill:#2f2e41;stroke:#000000;stroke-opacity:1" />
  <rect
     x="254.31377"
     y="402.36844"
     width="1.7035"
     height="186.533"
     id="rect68"
     style="fill:#2f2e41;stroke:#000000;stroke-opacity:1" />
  <rect
     x="-566.64478"
     y="357.89249"
     width="186.92877"
     height="1.7037899"
     transform="rotate(-86.24919)"
     id="rect70"
     style="fill:#2f2e41;stroke:#000000;stroke-opacity:1" />
  <rect
     x="149.83438"
     y="413.04315"
     width="1.7037899"
     height="186.92877"
     transform="rotate(-3.729)"
     id="rect72"
     style="fill:#2f2e41;stroke:#000000;stroke-opacity:1" />
  <rect
     y="745"
     width="896"
     height="2"
     id="rect74"
     x="0"
     style="fill:#2f2e41" />
  <path
     d="m 595.41068,61.875991 c 0,0 14.61842,41.606269 5.62246,48.007239 -8.99596,6.40097 30.36134,58.67548 30.36134,58.67548 l 47.22874,-12.80193 -25.86336,-43.73993 c 0,0 -3.37348,-43.739919 -3.37348,-50.140889 0,-6.40097 -53.9757,3e-5 -53.9757,3e-5 z"
     id="path76"
     inkscape:connector-curvature="0"
     style="fill:#a0616a" />
  <path
     d="m 595.41068,61.875991 c 0,0 14.61842,41.606269 5.62246,48.007239 -8.99596,6.40097 30.36134,58.67548 30.36134,58.67548 l 47.22874,-12.80193 -25.86336,-43.73993 c 0,0 -3.37348,-43.739919 -3.37348,-50.140889 0,-6.40097 -53.9757,3e-5 -53.9757,3e-5 z"
     id="path78"
     inkscape:connector-curvature="0"
     style="opacity:0.1" />
  <path
     d="m 570.87364,358.45403 c 0,0 -4.26731,53.34138 0,81.07889 4.26731,27.73751 10.66828,104.5491 10.66828,104.5491 0,0 0,145.08854 23.4702,147.22219 23.4702,2.13365 40.53945,4.26731 42.6731,-4.26731 2.13365,-8.53462 -10.66827,-12.80193 -4.26731,-17.06924 6.40096,-4.26731 8.53462,-19.20289 0,-36.27213 -8.53462,-17.06924 0,-189.8953 0,-189.8953 l 40.53945,108.81641 c 0,0 4.26731,89.61351 8.53462,102.41544 4.26731,12.80193 -4.26731,36.27213 10.66827,38.40579 14.93558,2.13366 32.00483,-10.66828 40.53945,-14.93559 8.53462,-4.26731 -12.80193,-4.26731 -8.53462,-6.401 4.26731,-2.13369 17.06924,-8.53462 12.80193,-10.66828 -4.26731,-2.13366 -8.53462,-104.54909 -8.53462,-104.54909 0,0 -11.73511,-218.6996 -26.67069,-227.2342 -14.93558,-8.5346 -24.537,6.16576 -24.537,6.16576 z"
     id="path80"
     inkscape:connector-curvature="0"
     style="fill:#2f2e41" />
  <path
     d="m 609.27943,682.76959 v 17.06924 c 0,0 -19.20289,46.39942 0,46.39942 19.20289,0 34.13848,4.8083 34.13848,-1.59266 V 687.0369 Z"
     id="path82"
     inkscape:connector-curvature="0"
     style="fill:#2f2e41" />
  <path
     d="m 735.16508,682.73929 v 17.06924 c 0,0 19.20289,46.39941 0,46.39941 -19.20289,0 -34.13848,4.80831 -34.13848,-1.59266 V 687.0066 Z"
     id="path84"
     inkscape:connector-curvature="0"
     style="fill:#2f2e41" />
  <circle
     cx="625.28186"
     cy="54.408199"
     r="38.405788"
     id="circle86"
     style="fill:#a0616a" />
  <path
     d="m 613.54674,125.88564 c 0,0 10.66828,32.00482 27.73752,25.60386 l 17.06924,-6.401 29.87117,204.83091 c 0,0 -23.47021,34.13848 -57.60869,12.80193 -34.13848,-21.33655 -17.06924,-236.8357 -17.06924,-236.8357 z"
     id="path88"
     inkscape:connector-curvature="0"
     style="fill:#8183f4" />
  <path
     d="m 643.41791,119.48471 9.60145,-20.269719 c 0,0 56.54186,26.670689 65.07648,35.205309 8.53462,8.53462 8.53462,21.33655 8.53462,21.33655 l -14.93559,53.34137 c 0,0 4.26731,117.351 4.26731,121.61834 0,4.26734 14.93559,27.73751 4.26731,19.20289 -10.66828,-8.53462 -12.80193,-17.06924 -21.33655,-4.26731 -8.53462,12.80193 -27.73751,27.73752 -27.73751,27.73752 z"
     id="path90"
     inkscape:connector-curvature="0"
     style="fill:#3f3d56" />
  <path
     d="m 718.09584,273.10783 -6.401,59.74234 c 0,0 -38.40579,34.13848 -29.87117,36.27214 8.53462,2.13366 12.80193,-6.401 12.80193,-6.401 0,0 14.93559,14.93559 23.47021,6.401 8.53462,-8.53459 29.87119,-89.61351 29.87119,-89.61351 z"
     id="path92"
     inkscape:connector-curvature="0"
     style="fill:#a0616a" />
  <path
     d="m 626.1,0.12987095 c -8.51412,-0.30437 -17.62549,-0.45493 -24.80406,4.13321005 a 36.31263,36.31263 0 0 0 -8.5723,8.39153 c -6.99153,8.83846 -13.03253,19.95926 -10.43553,30.92537 l 3.01633,-1.1764 a 19.75086,19.75086 0 0 1 -1.90515,8.46261 c 0.42475,-1.2351 1.84722,0.76151 1.4664,2.01085 l -3.32269,10.90067 c 5.46207,-2.00239 12.25661,2.05189 13.08819,7.80969 0.37974,-12.66123 1.6932,-27.17965 11.964,-34.59331 5.17951,-3.73868 11.73465,-4.88 18.04162,-5.8935 5.81832,-0.935 11.91781,-1.82659 17.49077,0.0889 5.57296,1.91545 10.31871,7.615 9.0553,13.37093 2.56964,-0.88518 5.44356,0.90566 6.71347,3.30856 1.26991,2.4029 1.33662,5.2375 1.37484,7.95506 2.73911,1.93583 5.85632,-1.9082 6.97263,-5.07112 2.62033,-7.42434 4.94941,-15.32739 3.53783,-23.073 -1.41158,-7.74561 -7.72325,-15.14773 -15.59638,-15.174 a 5.46676,5.46676 0 0 0 1.42176,-3.84874 l -6.48928,-0.5483 a 7.1723,7.1723 0 0 0 4.28575,-2.25954 C 650.7981,8.716231 630.31323,0.28048095 626.1,0.12987095 Z"
     id="path94"
     inkscape:connector-curvature="0"
     style="fill:#2f2e41" />
  <path
     d="m 624.215,113.08371 c 0,0 -17.36929,-17.020849 -23.62023,-15.978219 -6.25094,1.04263 -14.78554,15.978219 -14.78554,15.978219 0,0 -51.20772,17.06924 -49.07407,34.13848 2.13365,17.06924 25.60384,100.28178 25.60384,100.28178 0,0 19.2029,100.28179 2.13366,110.95006 -17.06924,10.66827 81.07889,38.40579 83.21254,25.60386 2.13365,-12.80193 6.401,-140.82123 0,-160.02412 -6.401,-19.20289 -23.4702,-110.95006 -23.4702,-110.95006 z"
     id="path96"
     inkscape:connector-curvature="0"
     style="fill:#3f3d56" />
  <path
     d="m 698.89294,147.22219 h 26.38265 c 0,0 18.42411,81.07889 20.55776,89.61352 2.13365,8.53463 6.401,49.07406 4.26731,49.07406 -2.13369,0 -44.80675,-8.53462 -44.80675,-2.13365 z"
     id="path98"
     inkscape:connector-curvature="0"
     style="fill:#3f3d56" />
  <path
     d="M 698,348 H 597 c -9.85608,-45.34 -10.67957,-89.14649 0,-131 h 101 c -16.29919,41.10071 -17.31775,84.60708 0,131 z"
     id="path100"
     inkscape:connector-curvature="0"
     style="fill:#f2f2f2" />
  <path
     d="m 555.93806,292.31071 29.87117,12.802 c 0,0 57.60868,8.53462 57.60868,-14.93559 0,-23.47021 -57.60868,-10.66827 -57.60868,-10.66827 l -19.20418,-6.14014 z"
     id="path102"
     inkscape:connector-curvature="0"
     style="fill:#a0616a" />
  <path
     d="m 562.339,134.42026 -25.60386,6.401 -19.20287,113.08368 c 0,0 -6.401,29.87117 4.26731,32.00482 10.66831,2.13365 40.53942,19.20295 40.53942,19.20295 0,0 4.26731,-32.00483 12.80193,-32.00483 l -21.33653,-17.06929 12.80193,-74.67788 z"
     id="path104"
     inkscape:connector-curvature="0"
     style="fill:#3f3d56" />
</svg>
