<?xml version="1.0" encoding="UTF-8" standalone="no"?>
<svg
   xmlns:dc="http://purl.org/dc/elements/1.1/"
   xmlns:cc="http://creativecommons.org/ns#"
   xmlns:rdf="http://www.w3.org/1999/02/22-rdf-syntax-ns#"
   xmlns:svg="http://www.w3.org/2000/svg"
   xmlns="http://www.w3.org/2000/svg"
   xmlns:sodipodi="http://sodipodi.sourceforge.net/DTD/sodipodi-0.dtd"
   xmlns:inkscape="http://www.inkscape.org/namespaces/inkscape"
   data-name="Layer 1"
   width="842"
   height="678.37637"
   viewBox="0 0 842 678.37637"
   version="1.1"
   id="svg124"
   sodipodi:docname="undraw_shop.svg"
   inkscape:version="0.92.4 (5da689c313, 2019-01-14)">
  <metadata
     id="metadata130">
    <rdf:RDF>
      <cc:Work
         rdf:about="">
        <dc:format>image/svg+xml</dc:format>
        <dc:type
           rdf:resource="http://purl.org/dc/dcmitype/StillImage" />
      </cc:Work>
    </rdf:RDF>
  </metadata>
  <defs
     id="defs128" />
  <sodipodi:namedview
     pagecolor="#ffffff"
     bordercolor="#666666"
     borderopacity="1"
     objecttolerance="10"
     gridtolerance="10"
     guidetolerance="10"
     inkscape:pageopacity="0"
     inkscape:pageshadow="2"
     inkscape:window-width="1920"
     inkscape:window-height="1016"
     id="namedview126"
     showgrid="false"
     inkscape:zoom="0.69577897"
     inkscape:cx="416.56793"
     inkscape:cy="337.82455"
     inkscape:window-x="1920"
     inkscape:window-y="27"
     inkscape:window-maximized="1"
     inkscape:current-layer="svg124" />
  <title
     id="title2">business_shop</title>
  <ellipse
     cx="486.81357"
     cy="650.62738"
     rx="355.18643"
     ry="27.748941"
     id="ellipse4"
     style="fill:#3f3d56;stroke-width:0.85381353" />
  <polygon
     points="783.268,614.093 755.975,616.692 759.874,581.601 779.369,585.5 "
     id="polygon6"
     transform="matrix(0.85381356,0,0,0.85381356,123.08899,99.169425)"
     style="fill:#a0616a" />
  <path
     d="m 678.66676,263.956 c 0,0 2.21934,29.96117 2.21934,31.07086 0,1.10969 -15.53543,77.67718 -15.53543,77.67718 0,0 -22.19348,42.16761 0,41.05793 22.19348,-1.10967 15.53543,-39.94823 15.53543,-39.94823 l 23.30313,-64.36108 -9.98705,-45.49663 z"
     id="path8"
     inkscape:connector-curvature="0"
     style="fill:#a0616a;stroke-width:0.85381353" />
  <polygon
     points="689.692,614.093 716.985,616.692 713.086,581.601 693.591,585.5 "
     id="polygon10"
     transform="matrix(0.85381356,0,0,0.85381356,123.08899,99.169425)"
     style="fill:#a0616a" />
  <path
     d="m 689.7635,370.48469 -5.54837,7.76772 c 0,0 -3.32902,33.29019 0,44.38695 3.32902,11.09676 9.98705,62.14175 9.98705,65.47077 0,3.32902 1.10967,5.54837 0,6.65804 -1.10966,1.10966 -4.43869,1.10967 -2.21935,3.32902 2.21935,2.21934 2.21935,8.87739 2.21935,8.87739 v 5.54835 l 14.42576,82.11588 c 0,0 -8.87739,9.98705 -2.21935,9.98705 6.65804,0 31.07088,0 29.96117,-11.09673 l -2.21934,-1.10968 c 0,0 -3.32902,-73.23847 -2.21935,-76.56749 1.10967,-3.32902 0,-9.98706 0,-9.98706 0,0 -2.21935,-3.32902 0,-4.4387 2.21935,-1.10969 2.21935,-9.98706 2.21935,-9.98706 l 9.98706,-67.69012 c 0,0 8.87739,45.49664 14.42576,49.93533 5.54837,4.4387 4.43869,15.53544 4.43869,15.53544 l 4.4387,97.6513 c 0,0 -4.4387,11.09674 0,13.31608 4.43869,2.21933 23.30313,9.98706 24.41283,-1.10967 1.10969,-11.09672 6.65803,-107.63837 6.65803,-112.07707 0,-4.43871 -1.10966,-6.65804 0,-9.98706 1.10967,-3.32902 -1.10966,-3.32902 0,-3.32902 1.10967,0 -2.21934,-3.32902 -2.21934,-5.54837 v -54.37401 c 0,0 1.10968,-11.09673 2.21934,-13.31607 1.10967,-2.21935 -1.10966,-4.4387 0,-7.76772 1.10967,-3.32902 -2.21934,-14.42576 -2.21934,-14.42576 l -49.93529,-13.31607 z"
     id="path12"
     inkscape:connector-curvature="0"
     style="fill:#2f2e41;stroke-width:0.85381353" />
  <path
     d="m 728.60208,619.05166 c 0,0 5.54838,-5.54837 -2.21935,-5.54837 a 36.119293,36.119293 0 0 0 -14.42576,3.32902 l -5.54837,19.97411 c 0,0 -22.74832,18.30964 2.77419,16.09029 25.52251,-2.21935 21.63864,-0.55484 21.63864,-0.55484 0,0 7.76772,-2.21935 8.87739,-4.43869 1.10966,-2.21934 -2.21935,-34.39989 -2.21935,-34.39989 0,0 -3.32901,8.87739 -8.87739,5.54837 z"
     id="path14"
     inkscape:connector-curvature="0"
     style="fill:#2f2e41;stroke-width:0.85381353" />
  <path
     d="m 776.31806,619.05166 c 0,0 -5.54837,-5.54837 2.21935,-5.54837 a 36.119293,36.119293 0 0 1 14.42576,3.32902 l 5.54837,19.97411 c 0,0 22.74831,18.30962 -2.77418,16.09027 -25.52249,-2.21935 -24.96767,-0.55483 -24.96767,-0.55483 0,0 -7.76771,-2.21935 -8.87739,-4.4387 -1.10968,-2.21934 5.54837,-34.39989 5.54837,-34.39989 0,0 3.32902,8.87741 8.87739,5.54839 z"
     id="path16"
     inkscape:connector-curvature="0"
     style="fill:#2f2e41;stroke-width:0.85381353" />
  <circle
     cx="704.18927"
     cy="147.44023"
     r="28.851521"
     id="circle18"
     style="fill:#a0616a;stroke-width:0.85381353" />
  <path
     d="m 694.20219,168.52401 c 0,0 4.4387,22.19348 4.4387,25.5225 0,3.32902 18.86445,13.31608 18.86445,13.31608 l 21.08381,-26.63216 c 0,0 -13.31608,-18.86445 -13.31608,-23.30313 z"
     id="path20"
     inkscape:connector-curvature="0"
     style="fill:#a0616a;stroke-width:0.85381353" />
  <path
     d="m 710.8473,197.37556 c 0,0 -9.67165,-2.57425 -12.60355,-6.83549 0,0 -30.67374,30.13864 -30.67374,35.68701 l 24.41283,43.27729 c 0,0 0,15.53543 2.21935,16.64509 2.21935,1.10967 0,0 0,4.4387 0,4.43869 -6.65804,33.29019 -4.43869,37.72892 2.21934,4.43873 4.43869,1.10966 2.21934,7.76771 -2.21935,6.65805 -7.76771,42.16762 -7.76771,42.16762 0,0 19.97411,-6.65804 48.82565,4.43869 28.85154,11.09673 63.25141,-4.43869 63.25141,-4.43869 0,0 -8.87739,-19.97412 -6.65804,-26.63216 2.21936,-6.65803 -5.54837,-18.86445 -5.54837,-18.86445 l -5.54836,-102.09 c 0,0 7.76772,-45.49664 2.21934,-47.71599 l -11.09675,-4.43874 -35.53618,-4.36754 c 0,0 -8.85077,22.12236 -23.27653,23.23203 z"
     id="path22"
     inkscape:connector-curvature="0"
     style="fill:#d0cde1;stroke-width:0.85381353" />
  <path
     d="m 678.66676,218.45936 -11.09675,7.76772 c 0,0 -5.54837,16.64509 0,24.41282 5.54838,7.76773 7.76773,18.86447 7.76773,18.86447 l 22.19347,-2.21935 z"
     id="path24"
     inkscape:connector-curvature="0"
     style="fill:#d0cde1;stroke-width:0.85381353" />
  <path
     d="m 682.16127,116.94912 -5.00465,-2.00359 c 0,0 10.46423,-11.5205 25.02329,-10.5187 l -4.09482,-4.50809 c 0,0 10.00931,-4.0071 19.10866,6.5116 4.78335,5.52947 10.31774,12.02905 13.76787,19.35075 h 5.35964 l -2.23692,4.92544 7.8292,4.92543 -8.0359,-0.88474 a 27.254583,27.254583 0 0 1 -0.76007,12.75633 l 0.2154,3.89306 c 0,0 -9.31475,-14.41184 -9.31475,-16.41542 v 5.00893 c 0,0 -5.00465,-4.50801 -5.00465,-7.51336 l -2.7298,3.50626 -1.36488,-5.50984 -16.83379,5.50984 2.72978,-4.50801 -10.46423,1.50271 4.09482,-5.50985 c 0,0 -11.82913,6.51161 -12.28419,12.02146 -0.45492,5.50977 -6.36945,12.52228 -6.36945,12.52228 l -2.72979,-5.00893 c 0,0 -4.09479,-22.5402 9.09923,-30.05356 z"
     id="path26"
     inkscape:connector-curvature="0"
     style="fill:#2f2e41;stroke-width:0.85381353" />
  <rect
     x="247.89018"
     y="340.65521"
     width="440.96292"
     height="309.76205"
     id="rect28"
     style="fill:#f2f2f2;stroke-width:0.85381353" />
  <rect
     x="285.01044"
     y="458.84363"
     width="110.72074"
     height="193.28128"
     id="rect30"
     style="fill:#3f3d56;stroke-width:0.85381353" />
  <rect
     x="305.49057"
     y="470.43878"
     width="29.825125"
     height="27.803082"
     id="rect32"
     style="fill:#f2f2f2;stroke-width:0.85381353" />
  <rect
     x="345.4259"
     y="470.43878"
     width="29.825125"
     height="27.803082"
     id="rect34"
     style="fill:#f2f2f2;stroke-width:0.85381353" />
  <rect
     x="305.49057"
     y="508.35208"
     width="29.825125"
     height="28.814106"
     id="rect36"
     style="fill:#f2f2f2;stroke-width:0.85381353" />
  <rect
     x="345.4259"
     y="508.35208"
     width="29.825125"
     height="28.814106"
     id="rect38"
     style="fill:#f2f2f2;stroke-width:0.85381353" />
  <circle
     cx="381.65109"
     cy="568.4967"
     r="7.0400429"
     id="circle40"
     style="fill:#8183f4;stroke-width:0.85381353" />
  <rect
     x="432.85141"
     y="440.49588"
     width="218.88147"
     height="183.68121"
     id="rect42"
     style="fill:#3f3d56;stroke-width:0.85381353" />
  <polygon
     points="92.199,351.134 133.831,264.092 143.148,244.603 155.337,219.117 164.654,199.628 175.455,177.051 667.407,177.051 673.786,199.628 679.295,219.117 686.499,244.603 692.008,264.092 716.602,351.134 "
     id="polygon44"
     transform="matrix(0.85381356,0,0,0.85381356,123.08899,99.169425)"
     style="fill:#3f3d56" />
  <rect
     x="432.85141"
     y="564.01672"
     width="218.88147"
     height="4.4800277"
     id="rect100"
     style="fill:#f2f2f2;stroke-width:0.85381353" />
  <rect
     x="540.37213"
     y="440.49588"
     width="3.8400264"
     height="40.96027"
     id="rect106"
     style="fill:#f2f2f2;stroke-width:0.85381353" />
  <circle
     cx="542.29211"
     cy="481.45615"
     r="6.4000411"
     id="circle108"
     style="fill:#f2f2f2;stroke-width:0.85381353" />
  <polygon
     points="155.337,219.117 164.654,199.628 673.786,199.628 679.295,219.117 "
     id="polygon110"
     transform="matrix(0.85381356,0,0,0.85381356,123.08899,99.169425)"
     style="fill:#8183f4" />
  <polygon
     points="133.831,264.092 143.148,244.603 686.499,244.603 692.008,264.092 "
     id="polygon112"
     transform="matrix(0.85381356,0,0,0.85381356,123.08899,99.169425)"
     style="fill:#8183f4" />
  <path
     d="m 760.78262,228.44643 c 0,0 -6.42596,16.52385 -5.08366,32.87262 a 17.326532,17.326532 0 0 0 2.86431,8.18531 v 0 l -78.72519,37.37501 c 0,0 -35.57122,3.68289 -26.69383,19.21833 8.87739,15.53544 41.05794,-7.76771 41.05794,-7.76771 0,0 84.33522,-12.20642 90.99326,-24.41283 6.65804,-12.20641 11.09674,-63.25141 11.09674,-63.25141 z"
     id="path114"
     inkscape:connector-curvature="0"
     style="fill:#a0616a;stroke-width:0.85381353" />
  <path
     d="m 764.11164,182.94979 h 16.6451 c 0,0 12.20642,2.21936 15.53544,24.41283 3.32901,22.19348 6.65803,27.74186 3.32901,27.74186 -3.32901,0 -43.27724,-1.10968 -43.27724,-2.21936 0,-1.10967 7.76769,-49.93533 7.76769,-49.93533 z"
     id="path116"
     inkscape:connector-curvature="0"
     style="fill:#d0cde1;stroke-width:0.85381353" />
  <circle
     cx="208.47034"
     cy="429.06281"
     r="85.381355"
     id="circle118"
     style="fill:#8183f4;stroke-width:0.85381353" />
  <circle
     cx="208.47034"
     cy="429.06281"
     r="73.427963"
     id="circle120"
     style="opacity:0.1;stroke-width:0.85381353" />
  <path
     d="M 204.95185,472.39206 V 461.7048 c -5.40237,-0.10539 -10.99119,-2.01073 -14.25108,-4.65596 l 2.23529,-7.08936 a 22.780787,22.780787 0 0 0 13.41291,4.54954 c 6.61346,0 11.08442,-4.33823 11.08442,-10.3695 0,-5.81996 -3.6328,-9.41734 -10.52549,-12.5921 -9.50087,-4.23235 -15.36894,-9.10012 -15.36894,-18.30563 0,-8.78291 5.4956,-15.44913 14.06508,-17.03625 v -10.68722 h 5.77483 v 10.26411 a 22.662491,22.662491 0 0 1 12.10903,3.70327 l -2.32895,6.98395 a 20.582636,20.582636 0 0 0 -11.73613,-3.59789 c -7.17192,0 -9.87334,4.86728 -9.87334,9.10013 0,5.50222 3.44635,8.25333 11.55013,12.06305 9.59364,4.44415 14.43754,9.94637 14.43754,19.36371 0,8.35926 -5.12314,16.19002 -14.71723,17.9879 v 11.00549 z"
     id="path122"
     inkscape:connector-curvature="0"
     style="fill:#f2f2f2;stroke-width:0.85381353" />
</svg>
