<?xml version="1.0" encoding="UTF-8" standalone="no"?>
<svg
   xmlns:dc="http://purl.org/dc/elements/1.1/"
   xmlns:cc="http://creativecommons.org/ns#"
   xmlns:rdf="http://www.w3.org/1999/02/22-rdf-syntax-ns#"
   xmlns:svg="http://www.w3.org/2000/svg"
   xmlns="http://www.w3.org/2000/svg"
   xmlns:sodipodi="http://sodipodi.sourceforge.net/DTD/sodipodi-0.dtd"
   xmlns:inkscape="http://www.inkscape.org/namespaces/inkscape"
   data-name="Layer 1"
   width="669.08258"
   height="614.27338"
   viewBox="0 0 669.08256 614.27337"
   version="1.1"
   id="svg126"
   sodipodi:docname="undraw_events.svg"
   inkscape:version="0.92.4 (5da689c313, 2019-01-14)">
  <metadata
     id="metadata132">
    <rdf:RDF>
      <cc:Work
         rdf:about="">
        <dc:format>image/svg+xml</dc:format>
        <dc:type
           rdf:resource="http://purl.org/dc/dcmitype/StillImage" />
      </cc:Work>
    </rdf:RDF>
  </metadata>
  <defs
     id="defs130" />
  <sodipodi:namedview
     pagecolor="#ffffff"
     bordercolor="#666666"
     borderopacity="1"
     objecttolerance="10"
     gridtolerance="10"
     guidetolerance="10"
     inkscape:pageopacity="0"
     inkscape:pageshadow="2"
     inkscape:window-width="1920"
     inkscape:window-height="1016"
     id="namedview128"
     showgrid="false"
     inkscape:zoom="0.54333273"
     inkscape:cx="193.47828"
     inkscape:cy="93.935348"
     inkscape:window-x="1920"
     inkscape:window-y="27"
     inkscape:window-maximized="1"
     inkscape:current-layer="svg126" />
  <path
     d="m 602.37564,814.75875 c -0.78106,0.66616 -1.587,1.31586 -2.40141,1.95737 h -98.87145 c -0.56742,-0.64151 -1.13525,-1.29121 -1.69424,-1.95737 a 109.34753,109.34753 0 0 1 -11.999,-17.641 c -8.11741,-14.6227 -10.914,-33.79337 -10.914,-53.31768 0,-1.19253 0.008,-2.385 0.0329,-3.57752 0.0908,-5.47737 0.39515,-10.96291 0.84732,-16.358 0.0823,-0.93757 0.16465,-1.86691 0.255,-2.79625 0.73207,-7.739 1.7601,-15.27235 2.92787,-22.31229 0.14778,-0.89646 0.296,-1.78469 0.45218,-2.66469 a 365.995,365.995 0 0 1 9.55665,-41.42544 c 0,0 0.13171,0.0329 0.38631,0.0987 0.73207,0.20561 2.48373,0.69086 5.05822,1.45571 7.089,2.1054 20.404,6.34913 35.75893,12.6571 0.83889,0.33717 1.68581,0.6908 2.54116,1.05267 a 283.26673,283.26673 0 0 1 37.61742,18.89113 c 0.74853,0.45232 1.48863,0.91288 2.22873,1.37343 v 0.0658 l -1.61994,52.44587 14.47472,-43.6624 q 4.42855,3.3678 8.46276,6.98236 c 0.7401,0.65793 1.4802,1.33232 2.19581,2.03141 a 81.02719,81.02719 0 0 1 15.46139,19.28578 c 21.65444,39.0404 12.56684,67.74292 -10.75736,87.41531 z"
     id="path2"
     inkscape:connector-curvature="0"
     style="fill:#f2f2f2" />
  <path
     d="m 588.43581,816.71612 h -2.63191 c -0.0165,-0.64974 -0.041,-1.29944 -0.0823,-1.95737 -1.06056,-19.72991 -9.52332,-41.51594 -21.04567,-62.54524 -0.41122,-0.7649 -0.83046,-1.54616 -1.2746,-2.31106 -5.59272,-10.00064 -11.82674,-19.78749 -18.266,-29.08909 -0.49353,-0.72374 -1.00353,-1.45566 -1.51353,-2.17939 -8.56958,-12.22943 -17.41866,-23.546 -25.41278,-33.20944 -0.5594,-0.69086 -1.13485,-1.36525 -1.70228,-2.03141 -11.85124,-14.21144 -21.63,-24.56577 -25.55293,-28.62854 -0.58389,-0.60035 -1.03606,-1.06091 -1.34848,-1.38166 -0.28793,-0.31253 -0.46061,-0.477 -0.49354,-0.5099 l 0.92121,-0.92111 0.008,-0.0247 0.93768,-0.92116 c 0.0329,0.0412 0.60035,0.58394 1.60348,1.62843 0.84732,0.86354 2.00666,2.07248 3.42984,3.58576 4.96747,5.26352 13.18326,14.21967 22.69052,25.57733 0.551,0.658 1.11838,1.34055 1.68581,2.02317 6.489,7.83772 13.52058,16.71987 20.48668,26.26819 q 2.62749,3.60219 5.09918,7.14686 c 0.518,0.72373 1.028,1.44747 1.52116,2.17121 q 10.44915,15.075 18.24992,28.99863 l 1.29909,2.32743 c 13.25755,24.17925 20.39633,45.59512 21.31754,64.02564 0.0326,0.65793 0.0575,1.30763 0.0739,1.95737 z"
     id="path4"
     inkscape:connector-curvature="0"
     style="fill:#ffffff" />
  <path
     d="m 533.21823,666.95289 c -0.46863,0.64975 -0.9457,1.29121 -1.44727,1.9245 a 70.24156,70.24156 0 0 1 -13.06841,12.92023 c -0.71561,0.52636 -1.44767,1.06919 -2.19581,1.5955 a 72.0404,72.0404 0 0 1 -6.33281,3.94767 70.82539,70.82539 0 0 1 -29.16308,8.75054 c -0.32889,0.0329 -0.66622,0.0576 -0.9951,0.074 -0.14818,0.88 -0.28793,1.76 -0.44414,2.65641 0.32888,-0.0164 0.65777,-0.0329 0.98706,-0.0658 a 73.30553,73.30553 0 0 0 30.89829,-9.10423 75.17819,75.17819 0 0 0 6.75206,-4.22726 c 0.7401,-0.51813 1.46373,-1.06091 2.17934,-1.60374 a 73.267,73.267 0 0 0 13.92376,-13.89073 c 0.47707,-0.63323 0.9457,-1.27474 1.40631,-1.91621 -0.85535,-0.36183 -1.68581,-0.71546 -2.5002,-1.06092 z"
     id="path6"
     inkscape:connector-curvature="0"
     style="fill:#ffffff" />
  <path
     d="m 572.82624,686.96246 c -0.28792,0.625 -0.59232,1.24186 -0.89671,1.85868 a 70.84226,70.84226 0 0 1 -25.95531,28.4147 c -0.77343,0.48525 -1.55449,0.954 -2.35242,1.39813 -0.23853,0.1398 -0.49313,0.28783 -0.73167,0.41944 a 71.27838,71.27838 0 0 1 -65.25933,2.0149 c -0.247,-0.1151 -0.4855,-0.23026 -0.724,-0.34541 -0.0904,0.93758 -0.17267,1.87515 -0.23813,2.82091 0.2301,0.10692 0.46864,0.22207 0.70717,0.32075 a 73.88,73.88 0 0 0 66.78893,-2.50014 c 0.32889,-0.181 0.64974,-0.36187 0.9706,-0.55106 0.79753,-0.46056 1.587,-0.92934 2.36005,-1.40631 a 73.40144,73.40144 0 0 0 26.66288,-29.14667 c 0.32086,-0.61682 0.62525,-1.24187 0.92121,-1.87515 -0.74817,-0.47697 -1.4967,-0.95399 -2.25327,-1.42277 z"
     id="path8"
     inkscape:connector-curvature="0"
     style="fill:#ffffff" />
  <path
     d="m 595.91151,704.1593 c -0.13975,0.625 -0.2795,1.25009 -0.43571,1.86691 a 71.08037,71.08037 0 0 1 -29.7305,42.37947 c -0.765,0.51814 -1.55449,1.01157 -2.344,1.49677 -0.84732,0.51 -1.69424,1.01985 -2.56605,1.49682 a 71.45879,71.45879 0 0 1 -84.30678,-11.1767 c -0.18914,-0.17273 -0.36985,-0.35364 -0.551,-0.5346 0,1.2254 -0.008,2.43439 0.008,3.65156 0.16425,0.15626 0.33692,0.31253 0.5096,0.46056 a 74.08268,74.08268 0 0 0 85.62273,9.91018 c 0.87182,-0.477 1.72717,-0.97045 2.55763,-1.49676 0.806,-0.477 1.58742,-0.97051 2.36848,-1.4804 a 73.80814,73.80814 0 0 0 30.62722,-42.67549 c 0.15621,-0.59217 0.31242,-1.18429 0.45217,-1.78469 -0.71515,-0.72375 -1.46369,-1.40631 -2.21222,-2.11363 z"
     id="path10"
     inkscape:connector-curvature="0"
     style="fill:#ffffff" />
  <path
     d="M 526.95836,570.23602 H 58.60285 V 218.84703 h 468.35551 z"
     id="path12"
     inkscape:connector-curvature="0"
     style="fill:#ffffff" />
  <circle
     cx="172.09427"
     cy="273.54153"
     r="18.64295"
     id="circle14"
     style="fill:#e6e6e6" />
  <path
     d="m 215.15057,261.11291 a 3.10716,3.10716 0 0 0 0,6.21431 h 226.85872 a 3.10716,3.10716 0 0 0 0,-6.21431 z"
     id="path16"
     inkscape:connector-curvature="0"
     style="fill:#e6e6e6" />
  <path
     d="m 215.15057,279.75582 a 3.1071619,3.1071619 0 1 0 -0.0131,6.21431 H 358.5599 a 3.10716,3.10716 0 1 0 0,-6.21431 z"
     id="path18"
     inkscape:connector-curvature="0"
     style="fill:#e6e6e6" />
  <path
     d="M 526.95836,570.23602 H 58.60285 V 218.84703 H 526.95836 Z M 63.84492,564.99395 H 521.71629 V 224.08913 H 63.84492 Z"
     id="path20"
     inkscape:connector-curvature="0"
     style="fill:#e6e6e6" />
  <path
     d="m 84.7805,326.0061 v 209 h 416 v -209 z m 414,51.75 h -101.5 v -49.75 h 101.5 z m -205,0 v -49.75 h 101.5 v 49.75 z m 101.5,2 v 49.75 h -101.5 v -49.75 z m -103.5,-2 h -101.5 v -49.75 h 101.5 z m 0,2 v 49.75 h -101.5 v -49.75 z m -103.5,49.75 h -101.5 v -49.75 h 101.5 z m 0,2 v 49.75 h -101.5 v -49.75 z m 2,0 h 101.5 v 49.75 h -101.5 z m 101.5,51.75 v 49.75 h -101.5 v -49.75 z m 2,0 h 101.5 v 49.75 h -101.5 z m 0,-2 v -49.75 h 101.5 v 49.75 z m 103.5,-49.75 h 101.5 v 49.75 h -101.5 z m 0,-2 v -49.75 h 101.5 v 49.75 z m -209,-101.5 v 49.75 h -101.5 v -49.75 z m -101.5,155.25 h 101.5 v 49.75 h -101.5 z m 310.5,49.75 v -49.75 h 101.5 v 49.75 z"
     id="path22"
     inkscape:connector-curvature="0"
     style="fill:#e4e4e4" />
  <path
     d="m 255.55232,382.23357 -41.39272,-0.93718 c -4.14034,-16.03871 -2.27631,-31.30987 1.0277,-45.38227 l 41.39252,0.93715 a 90.6291,90.6291 0 0 0 -1.0275,45.3823 z"
     id="path24"
     inkscape:connector-curvature="0"
     style="fill:#8183f4" />
  <polygon
     points="185.12,144.262 163.676,143.496 163.698,141.921 185.143,142.687 "
     id="polygon26"
     style="fill:#ffffff"
     transform="translate(58.60285,202.4479)" />
  <polygon
     points="185.03,150.563 163.586,149.796 163.608,148.221 185.052,148.988 "
     id="polygon28"
     style="fill:#ffffff"
     transform="translate(58.60285,202.4479)" />
  <polygon
     points="184.94,156.863 163.495,156.096 163.518,154.521 184.962,155.288 "
     id="polygon30"
     style="fill:#ffffff"
     transform="translate(58.60285,202.4479)" />
  <polygon
     points="184.849,163.163 163.405,162.396 163.427,160.821 184.872,161.588 "
     id="polygon32"
     style="fill:#ffffff"
     transform="translate(58.60285,202.4479)" />
  <polygon
     points="184.759,169.463 163.315,168.696 163.337,167.121 184.782,167.888 "
     id="polygon34"
     style="fill:#ffffff"
     transform="translate(58.60285,202.4479)" />
  <path
     d="m 165.55232,498.23357 -41.39272,-0.93718 c -4.14034,-16.03871 -2.27631,-31.30987 1.0277,-45.38227 l 41.39252,0.93715 a 90.6291,90.6291 0 0 0 -1.0275,45.3823 z"
     id="path36"
     inkscape:connector-curvature="0"
     style="fill:#f0f0f0" />
  <polygon
     points="95.12,260.262 73.676,259.496 73.698,257.921 95.143,258.687 "
     id="polygon38"
     style="fill:#ffffff"
     transform="translate(58.60285,202.4479)" />
  <polygon
     points="95.03,266.563 73.586,265.796 73.608,264.221 95.052,264.988 "
     id="polygon40"
     style="fill:#ffffff"
     transform="translate(58.60285,202.4479)" />
  <polygon
     points="94.94,272.863 73.495,272.096 73.518,270.521 94.962,271.288 "
     id="polygon42"
     style="fill:#ffffff"
     transform="translate(58.60285,202.4479)" />
  <polygon
     points="94.849,279.163 73.405,278.396 73.427,276.821 94.872,277.588 "
     id="polygon44"
     style="fill:#ffffff"
     transform="translate(58.60285,202.4479)" />
  <polygon
     points="94.759,285.463 73.315,284.696 73.337,283.121 94.782,283.888 "
     id="polygon46"
     style="fill:#ffffff"
     transform="translate(58.60285,202.4479)" />
  <path
     d="m 381.55232,445.23357 -41.39272,-0.93718 c -4.14034,-16.03871 -2.27631,-31.30987 1.0277,-45.38227 l 41.39252,0.93715 a 90.6291,90.6291 0 0 0 -1.0275,45.3823 z"
     id="path48"
     inkscape:connector-curvature="0"
     style="fill:#f0f0f0" />
  <polygon
     points="311.12,207.262 289.676,206.496 289.698,204.921 311.143,205.687 "
     id="polygon50"
     style="fill:#ffffff"
     transform="translate(58.60285,202.4479)" />
  <polygon
     points="311.03,213.563 289.586,212.796 289.608,211.221 311.052,211.988 "
     id="polygon52"
     style="fill:#ffffff"
     transform="translate(58.60285,202.4479)" />
  <polygon
     points="310.94,219.863 289.495,219.096 289.518,217.521 310.962,218.288 "
     id="polygon54"
     style="fill:#ffffff"
     transform="translate(58.60285,202.4479)" />
  <polygon
     points="310.849,226.163 289.405,225.396 289.427,223.821 310.872,224.588 "
     id="polygon56"
     style="fill:#ffffff"
     transform="translate(58.60285,202.4479)" />
  <polygon
     points="310.759,232.463 289.315,231.696 289.337,230.121 310.782,230.888 "
     id="polygon58"
     style="fill:#ffffff"
     transform="translate(58.60285,202.4479)" />
  <path
     d="m 363.55232,435.23357 -41.39272,-0.93718 c -4.14034,-16.03871 -2.27631,-31.30987 1.0277,-45.38227 l 41.39252,0.93715 a 90.6291,90.6291 0 0 0 -1.0275,45.3823 z"
     id="path60"
     inkscape:connector-curvature="0"
     style="fill:#8183f4" />
  <polygon
     points="293.12,197.262 271.676,196.496 271.698,194.921 293.143,195.687 "
     id="polygon62"
     style="fill:#ffffff"
     transform="translate(58.60285,202.4479)" />
  <polygon
     points="293.03,203.563 271.586,202.796 271.608,201.221 293.052,201.988 "
     id="polygon64"
     style="fill:#ffffff"
     transform="translate(58.60285,202.4479)" />
  <polygon
     points="292.94,209.863 271.495,209.096 271.518,207.521 292.962,208.288 "
     id="polygon66"
     style="fill:#ffffff"
     transform="translate(58.60285,202.4479)" />
  <polygon
     points="292.849,216.163 271.405,215.396 271.427,213.821 292.872,214.588 "
     id="polygon68"
     style="fill:#ffffff"
     transform="translate(58.60285,202.4479)" />
  <polygon
     points="292.759,222.463 271.315,221.696 271.337,220.121 292.782,220.888 "
     id="polygon70"
     style="fill:#ffffff"
     transform="translate(58.60285,202.4479)" />
  <path
     d="M 516.21844,526.58318 474.82571,525.646 c -4.14034,-16.03871 -2.27631,-31.30987 1.02771,-45.38227 l 41.39251,0.93715 a 90.6291,90.6291 0 0 0 -1.02749,45.3823 z"
     id="path72"
     inkscape:connector-curvature="0"
     style="fill:#8183f4" />
  <polygon
     points="445.786,288.612 424.342,287.845 424.365,286.27 445.809,287.037 "
     id="polygon74"
     style="fill:#ffffff"
     transform="translate(58.60285,202.4479)" />
  <polygon
     points="445.696,294.912 424.252,294.145 424.274,292.57 445.719,293.337 "
     id="polygon76"
     style="fill:#ffffff"
     transform="translate(58.60285,202.4479)" />
  <polygon
     points="445.606,301.212 424.161,300.446 424.184,298.871 445.628,299.637 "
     id="polygon78"
     style="fill:#ffffff"
     transform="translate(58.60285,202.4479)" />
  <polygon
     points="445.515,307.512 424.071,306.746 424.094,305.171 445.538,305.937 "
     id="polygon80"
     style="fill:#ffffff"
     transform="translate(58.60285,202.4479)" />
  <polygon
     points="445.425,313.813 423.981,313.046 424.003,311.471 445.448,312.238 "
     id="polygon82"
     style="fill:#ffffff"
     transform="translate(58.60285,202.4479)" />
  <path
     d="m 471.55232,390.23357 -41.39272,-0.93718 c -4.14034,-16.03871 -2.27631,-31.30987 1.0277,-45.38227 l 41.39252,0.93715 a 90.6291,90.6291 0 0 0 -1.0275,45.3823 z"
     id="path84"
     inkscape:connector-curvature="0"
     style="fill:#f0f0f0" />
  <polygon
     points="401.12,152.262 379.676,151.496 379.698,149.921 401.143,150.687 "
     id="polygon86"
     style="fill:#ffffff"
     transform="translate(58.60285,202.4479)" />
  <polygon
     points="401.03,158.563 379.586,157.796 379.608,156.221 401.052,156.988 "
     id="polygon88"
     style="fill:#ffffff"
     transform="translate(58.60285,202.4479)" />
  <polygon
     points="400.94,164.863 379.495,164.096 379.518,162.521 400.962,163.288 "
     id="polygon90"
     style="fill:#ffffff"
     transform="translate(58.60285,202.4479)" />
  <polygon
     points="400.849,171.163 379.405,170.396 379.427,168.821 400.872,169.588 "
     id="polygon92"
     style="fill:#ffffff"
     transform="translate(58.60285,202.4479)" />
  <polygon
     points="400.759,177.463 379.315,176.696 379.337,175.121 400.782,175.888 "
     id="polygon94"
     style="fill:#ffffff"
     transform="translate(58.60285,202.4479)" />
  <path
     d="m 513.98625,493.13801 a 10.05579,10.05579 0 0 0 6.786,-13.84578 l 26.09919,-24.4093 -18.0556,-4.33922 -22.01607,23.84474 a 10.11028,10.11028 0 0 0 7.1865,18.74956 z"
     id="path96"
     inkscape:connector-curvature="0"
     style="fill:#ffb6b6" />
  <path
     d="m 527.46881,473.47618 -12.17171,-17.16138 45.71846,-47.28659 10.61553,-74.53553 a 25.35292,25.35292 0 0 1 33.19643,-20.44981 v 0 a 25.37994,25.37994 0 0 1 15.92679,32.12217 l -27.08463,80.35815 z"
     id="path98"
     inkscape:connector-curvature="0"
     style="fill:#e4e4e4" />
  <polygon
     points="554.711,536.5 554.708,588.617 541.196,588.616 534.768,536.499 "
     id="polygon100"
     style="fill:#ffb6b6"
     transform="translate(58.60285,202.4479)" />
  <path
     d="m 620.57982,816.72047 h -9.58777 l -1.71137,-9.052 -4.38308,9.052 h -25.429 a 5.71622,5.71622 0 0 1 -3.24815,-10.42013 l 20.30688,-14.02466 v -9.15125 l 21.35929,1.27486 z"
     id="path102"
     inkscape:connector-curvature="0"
     style="fill:#2f2e41" />
  <polygon
     points="613.16,529.088 638.069,574.867 626.2,581.325 595.643,538.619 "
     id="polygon104"
     style="fill:#ffb6b6"
     transform="translate(58.60285,202.4479)" />
  <path
     d="m 715.31885,796.37585 -8.42164,4.58269 -5.82984,-7.133 0.47662,10.046 -22.33622,12.1544 a 5.71622,5.71622 0 0 1 -7.83363,-7.60025 l 11.13363,-22.025 -4.37405,-8.03822 19.37081,-9.08937 z"
     id="path106"
     inkscape:connector-curvature="0"
     style="fill:#2f2e41" />
  <path
     d="m 619.00344,772.5061 h -27.92362 v -99.43457 l -17.28711,-64.82617 a 371.10613,371.10613 0 0 1 -9.709,-142.30127 l 0.0242,-0.19482 0.15015,-0.126 c 0.44385,-0.373 44.68872,-36.957 72.67529,-8.9707 18.864,18.86425 1.13843,86.6958 0.14649,90.41894 V 664.0061 Z"
     id="path108"
     inkscape:connector-curvature="0"
     style="fill:#2f2e41" />
  <path
     d="m 555.57982,484.0061 9,-90 c -1.16919,-2.4541 -18,-18 -0.40186,-45.33252 l 19.0083,-44.61767 35.59741,-0.55323 0.14966,0.14991 a 71.70284,71.70284 0 0 1 19.6482,64.894 l -10.48926,52.44727 9.08838,36.354 z"
     id="path110"
     inkscape:connector-curvature="0"
     style="fill:#e4e4e4" />
  <polygon
     points="575.202,437.728 543.742,471.137 601.106,551.824 623.111,536.179 "
     id="polygon112"
     style="fill:#2f2e41"
     transform="translate(58.60285,202.4479)" />
  <circle
     cx="597.65857"
     cy="262.11633"
     r="32.869999"
     id="circle114"
     style="fill:#ffb6b6" />
  <polygon
     points="512.977,277.558 521.159,232.558 530.977,178.558 539.977,232.558 530.977,277.558 "
     id="polygon116"
     style="opacity:0.1"
     transform="translate(58.60285,202.4479)" />
  <path
     d="m 598.16644,526.37118 a 10.05579,10.05579 0 0 0 -0.53235,-15.41014 l 11.5323,-33.82285 -17.97207,4.67314 -8.196,31.40231 a 10.11027,10.11027 0 0 0 15.16812,13.15754 z"
     id="path118"
     inkscape:connector-curvature="0"
     style="fill:#ffb6b6" />
  <path
     d="m 600.80344,502.677 -18.81836,-9.40918 18.06936,-63.24316 -25.729,-70.75489 a 25.35292,25.35292 0 0 1 19.658,-33.67138 v 0 a 25.38,25.38 0 0 1 29.17523,20.83979 l 13.94117,83.646 z"
     id="path120"
     inkscape:connector-curvature="0"
     style="fill:#e4e4e4" />
  <path
     d="m 859.80004,815.52612 a 1.18663,1.18663 0 0 1 -1.18995,1.19 h -647.29 a 1.19,1.19 0 1 1 0,-2.38 h 647.29 a 1.193,1.193 0 0 1 1.18995,1.19 z"
     id="path122"
     inkscape:connector-curvature="0"
     style="fill:#cacaca" />
  <path
     d="m 725.49715,260.50911 c -4.147,6.73212 -12.93122,9.69989 -20.72236,8.35193 -7.79113,-1.3479 -14.56121,-6.37658 -19.56158,-12.50146 -5.00043,-6.12494 -8.45929,-13.33454 -11.8631,-20.47119 -3.40381,-7.13672 -6.84692,-14.35181 -11.82226,-20.497 -4.97535,-6.14527 -11.70966,-11.21259 -19.48957,-12.624 -4.23407,-0.76812 -9.02972,-0.261 -12.11914,2.73444 a 11.80248,11.80248 0 0 0 -3.2381,8.3313 8.70266,8.70266 0 0 0 -11.58221,8.63678 c -0.11523,-0.002 -0.22913,-0.01 -0.34436,-0.01 -14.49615,-8.24164 -36.4989,-3.45392 -36.4989,5.54608 -7.9541,0 -17.67578,7.85529 -17.67578,19.78363 v 6e-5 c 16.44848,0 26.12823,21.07471 16.52612,36.18561 a 103.28775,103.28775 0 0 1 -8.18018,11.0307 h 20.56871 a 17.13739,17.13739 0 0 0 3.01819,-8.37134 38.50432,38.50432 0 0 1 1.34637,8.37134 c 0,0 56.18494,7.23975 41.68341,-48.76294 a 5.868,5.868 0 0 0 2.71784,-0.82373 c 2.18976,-1.31976 3.38232,-4.111 3.59112,-6.9433 q 0.813,0.21735 1.62116,0.43366 c 3.86566,1.04352 7.88092,2.39563 10.53418,5.39441 4.48419,5.06817 3.54095,12.76068 5.16919,19.3291 1.96362,7.92108 7.83789,14.32794 14.36352,19.22845 7.01123,5.26514 15.20142,9.26526 23.93006,10.09559 8.7287,0.83032 18.01672,-1.824 24.06482,-8.17218 6.0481,-6.34818 8.15414,-16.57463 3.96285,-24.27611 z"
     id="path124"
     inkscape:connector-curvature="0"
     style="fill:#2f2e41" />
</svg>
