<?xml version="1.0" encoding="UTF-8" standalone="no"?>
<svg
   xmlns:dc="http://purl.org/dc/elements/1.1/"
   xmlns:cc="http://creativecommons.org/ns#"
   xmlns:rdf="http://www.w3.org/1999/02/22-rdf-syntax-ns#"
   xmlns:svg="http://www.w3.org/2000/svg"
   xmlns="http://www.w3.org/2000/svg"
   xmlns:sodipodi="http://sodipodi.sourceforge.net/DTD/sodipodi-0.dtd"
   xmlns:inkscape="http://www.inkscape.org/namespaces/inkscape"
   data-name="Layer 1"
   width="869.99994"
   height="520.09906"
   viewBox="0 0 869.99994 520.09905"
   version="1.1"
   id="svg52"
   sodipodi:docname="undraw_login.svg"
   inkscape:version="0.92.4 (5da689c313, 2019-01-14)">
  <metadata
     id="metadata58">
    <rdf:RDF>
      <cc:Work
         rdf:about="">
        <dc:format>image/svg+xml</dc:format>
        <dc:type
           rdf:resource="http://purl.org/dc/dcmitype/StillImage" />
      </cc:Work>
    </rdf:RDF>
  </metadata>
  <defs
     id="defs56" />
  <sodipodi:namedview
     pagecolor="#ffffff"
     bordercolor="#666666"
     borderopacity="1"
     objecttolerance="10"
     gridtolerance="10"
     guidetolerance="10"
     inkscape:pageopacity="0"
     inkscape:pageshadow="2"
     inkscape:window-width="1920"
     inkscape:window-height="1016"
     id="namedview54"
     showgrid="false"
     inkscape:zoom="0.90745052"
     inkscape:cx="472.03189"
     inkscape:cy="176.78072"
     inkscape:window-x="1920"
     inkscape:window-y="27"
     inkscape:window-maximized="1"
     inkscape:current-layer="svg52" />
  <path
     d="m 666.0924,516.25664 c -11.13833,-9.4118 -17.90393,-24.27967 -16.12965,-38.75366 1.77428,-14.47399 12.76358,-27.78 27.01831,-30.85364 14.25473,-3.07364 30.50415,5.43465 34.83378,19.3594 2.3828,-26.84637 5.12854,-54.81757 19.40179,-77.67976 12.92407,-20.70115 35.3088,-35.51364 59.5688,-38.16357 24.26,-2.64993 49.80265,7.35859 64.93275,26.50671 15.13,19.14812 18.8346,46.98549 8.2379,68.96911 -7.8063,16.19456 -22.188,28.24676 -37.25663,38.05184 a 240.45181,240.45181 0 0 1 -164.45376,35.97709 z"
     id="path2"
     style="fill:#8086f2;fill-opacity:0.15686275"
     inkscape:connector-curvature="0" />
  <path
     d="m 831.72786,358.0788 a 393.41394,393.41394 0 0 0 -54.82622,54.44229 394.561,394.561 0 0 0 -61.752,103.194 c -1.112,2.72484 3.31272,3.911 4.4123,1.21642 A 392.34209,392.34209 0 0 1 834.96341,361.31434 c 2.28437,-1.86015 -0.97,-5.08035 -3.23555,-3.23554 z"
     id="path4"
     inkscape:connector-curvature="0"
     style="fill:#ffffff" />
  <path
     d="m 280.0671,513.69941 c 15.2985,-12.92712 24.591,-33.34815 22.15408,-53.22817 -2.43692,-19.88002 -17.53079,-38.15588 -37.10966,-42.37749 -19.57887,-4.22161 -41.89745,7.46449 -47.8442,26.59014 -3.27278,-36.87349 -7.04406,-75.29195 -26.64837,-106.69317 -17.75122,-28.433 -48.49666,-48.778 -81.81777,-52.41768 -33.321114,-3.63968 -68.403954,10.107 -89.185114,36.407 -20.7811603,26.3 -25.8693403,64.53459 -11.3147603,94.72909 10.7218503,22.24324 30.4752803,38.79693 51.1719503,52.26422 66.029544,42.9653 147.939124,60.88443 225.877304,49.41454"
     id="path6"
     style="fill:#8086f2;fill-opacity:0.15686275"
     inkscape:connector-curvature="0" />
  <path
     d="m 52.566736,296.44208 a 540.35491,540.35491 0 0 1 75.303834,74.77651 548.0761,548.0761 0 0 1 59.38606,87.89068 545.835,545.835 0 0 1 25.43041,53.8463 c 1.52726,3.74257 -4.55,5.37169 -6.06031,1.67075 a 536.35952,536.35952 0 0 0 -49.009,-92.727 539.73411,539.73411 0 0 0 -65.728754,-81.19837 538.44066,538.44066 0 0 0 -43.76626,-39.81484 c -3.13759,-2.55492 1.33232,-6.97788 4.444,-4.444 z"
     id="path8"
     inkscape:connector-curvature="0"
     style="fill:#ffffff" />
  <path
     d="m 624.49998,521 h -365 V 146.5 C 259.49998,66.82227 324.32225,2 403.99974,2 h 76.00049 c 79.67749,0 144.49975,64.82227 144.49975,144.5 z"
     id="path10"
     style="opacity:0.16000001;fill:#8183f4;fill-opacity:1"
     inkscape:connector-curvature="0" />
  <path
     d="m 548.49998,521 h -289 V 146.5 a 143.38177,143.38177 0 0 1 27.59571,-84.94434 c 0.66381,-0.90478 1.32592,-1.79785 2.00878,-2.68115 a 144.46633,144.46633 0 0 1 30.75415,-29.85058 c 0.65967,-0.48 1.322,-0.95166 1.99415,-1.42334 a 144.15958,144.15958 0 0 1 31.47216,-16.459 c 0.66089,-0.25049 1.33374,-0.50146 2.00659,-0.74219 a 144.01979,144.01979 0 0 1 31.1084,-7.33593 c 0.65772,-0.0899 1.333,-0.16016 2.0083,-0.23047 a 146.28769,146.28769 0 0 1 31.10547,0 c 0.67334,0.0703 1.34864,0.14062 2.01416,0.23144 a 143.995,143.995 0 0 1 31.10034,7.335 c 0.6731,0.24073 1.346,0.4917 2.00879,0.74268 a 143.79947,143.79947 0 0 1 31.10645,16.21582 c 0.67163,0.46143 1.344,0.93311 2.00635,1.40478 a 145.987,145.987 0 0 1 18.38354,15.564 144.305,144.305 0 0 1 12.72437,14.55078 c 0.68066,0.88037 1.34277,1.77344 2.00537,2.67676 A 143.38227,143.38227 0 0 1 548.49998,146.5 Z"
     id="path12"
     inkscape:connector-curvature="0"
     style="fill:#cccccc" />
  <circle
     cx="524.99994"
     cy="337.5"
     r="16"
     id="circle14"
     style="fill:#8183f4" />
  <polygon
     points="594.601,460.496 594.599,507.783 582.339,507.783 576.506,460.495 "
     id="polygon16"
     style="fill:#ffb8b8"
     transform="translate(5.6614669e-6,2)" />
  <path
     d="m 573.58166,506.27982 h 23.64384 v 14.88687 h -38.53071 v 0 a 14.88688,14.88688 0 0 1 14.88688,-14.88688 z"
     id="path18"
     inkscape:connector-curvature="0"
     style="fill:#2f2e41" />
  <polygon
     points="655.601,460.496 655.599,507.783 643.339,507.783 637.506,460.495 "
     id="polygon20"
     style="fill:#ffb8b8"
     transform="translate(5.6614669e-6,2)" />
  <path
     d="m 634.58166,506.27982 h 23.64384 v 14.88687 h -38.53071 v 0 a 14.88688,14.88688 0 0 1 14.88688,-14.88688 z"
     id="path22"
     inkscape:connector-curvature="0"
     style="fill:#2f2e41" />
  <path
     d="m 533.09756,340.66962 a 10.74272,10.74272 0 0 1 4.51052,-15.84307 l 41.67577,-114.86667 20.50713,11.19139 -47.58476,109.77071 a 10.80091,10.80091 0 0 1 -19.10866,9.74764 z"
     id="path24"
     inkscape:connector-curvature="0"
     style="fill:#ffb8b8" />
  <path
     d="m 649.33642,362.25357 a 10.74269,10.74269 0 0 1 -2.89305,-16.21659 l -12.91076,-121.50941 23.33776,1.06622 5.36567,119.52048 a 10.80091,10.80091 0 0 1 -12.89962,17.13934 z"
     id="path26"
     inkscape:connector-curvature="0"
     style="fill:#ffb8b8" />
  <circle
     cx="612.10577"
     cy="164.12254"
     r="24.561029"
     id="circle28"
     style="fill:#ffb8b8" />
  <path
     d="m 649.17956,334.61864 h -74.04687 l 0.0891,-0.57617 c 0.13306,-0.86133 13.19678,-86.439 3.56177,-114.436 a 11.813,11.813 0 0 1 6.06933,-14.5835 h 2.5e-4 c 13.77173,-6.48535 40.20752,-14.47119 62.52,4.90918 a 28.23448,28.23448 0 0 1 9.45947,23.396 z"
     id="path30"
     inkscape:connector-curvature="0"
     style="fill:#8183f4" />
  <path
     d="m 589.35437,260.25047 -33.33667,-6.7632 15.62622,-37.02978 a 13.99723,13.99723 0 0 1 27.10571,6.99755 z"
     id="path32"
     inkscape:connector-curvature="0"
     style="fill:#8183f4" />
  <path
     d="m 632.05041,272.80809 -2.00415,-45.94141 c -1.51977,-8.63623 3.42408,-16.80029 11.02735,-18.13476 7.60547,-1.32959 15.03174,4.66016 16.55835,13.35986 l 7.533,42.92774 z"
     id="path34"
     inkscape:connector-curvature="0"
     style="fill:#8183f4" />
  <path
     d="m 646.71604,329.1186 c 11.91455,45.37671 13.21436,103.0694 10,166 l -16,-2 -29,-120 -16,122 -18,-1 c -5.37744,-66.02972 -10.61328,-122.71527 -2,-160 z"
     id="path36"
     inkscape:connector-curvature="0"
     style="fill:#2f2e41" />
  <path
     d="m 628.28908,183.10401 c -4.582,4.88079 -13.09131,2.26067 -13.68835,-4.40717 a 8.05467,8.05467 0 0 1 0.0101,-1.55569 c 0.30826,-2.95357 2.01461,-5.63506 1.60587,-8.7536 a 4.59046,4.59046 0 0 0 -0.84011,-2.14892 c -3.65124,-4.88933 -12.22227,2.18687 -15.6682,-2.23929 -2.113,-2.714 0.3708,-6.98713 -1.25065,-10.02051 -2.14006,-4.00358 -8.47881,-2.0286 -12.45388,-4.22116 -4.42275,-2.43948 -4.15822,-9.22524 -1.24686,-13.35269 3.55052,-5.03359 9.77572,-7.71951 15.92336,-8.10661 6.14764,-0.3871 12.25292,1.27475 17.99229,3.51145 6.52109,2.54134 12.98768,6.05351 17.00067,11.78753 4.88021,6.97317 5.34986,16.34793 2.90917,24.50174 -1.4847,4.96005 -6.55178,11.01924 -10.29345,15.00492 z"
     id="path38"
     inkscape:connector-curvature="0"
     style="fill:#2f2e41" />
  <path
     d="m 468.99998,412.5 h -130 a 6.46539,6.46539 0 0 1 -6.5,-6.41531 V 115.91527 a 6.46539,6.46539 0 0 1 6.5,-6.41531 h 130 a 6.46539,6.46539 0 0 1 6.5,6.41531 v 290.16942 a 6.46539,6.46539 0 0 1 -6.5,6.41531 z"
     id="path42"
     inkscape:connector-curvature="0"
     style="fill:#ffffff" />
  <rect
     x="332.49994"
     y="203.38965"
     width="143"
     height="2"
     id="rect44"
     style="fill:#cccccc;stroke:#cccccc;stroke-opacity:1" />
  <rect
     x="332.99994"
     y="317.5"
     width="143"
     height="2"
     id="rect46"
     style="fill:#cccccc;stroke:#cccccc;stroke-opacity:1" />
  <rect
     x="377.49994"
     y="109.5"
     width="2"
     height="304"
     id="rect48"
     style="fill:#cccccc;stroke:#cccccc;stroke-opacity:1" />
  <rect
     x="427.49994"
     y="109.5"
     width="2"
     height="304"
     id="rect50"
     style="fill:#cccccc;stroke:#cccccc;stroke-opacity:1" />
</svg>
