<?xml version="1.0" encoding="UTF-8" standalone="no"?>
<svg
   xmlns:dc="http://purl.org/dc/elements/1.1/"
   xmlns:cc="http://creativecommons.org/ns#"
   xmlns:rdf="http://www.w3.org/1999/02/22-rdf-syntax-ns#"
   xmlns:svg="http://www.w3.org/2000/svg"
   xmlns="http://www.w3.org/2000/svg"
   xmlns:sodipodi="http://sodipodi.sourceforge.net/DTD/sodipodi-0.dtd"
   xmlns:inkscape="http://www.inkscape.org/namespaces/inkscape"
   data-name="Layer 1"
   width="659.3363"
   height="687.9422"
   viewBox="0 0 659.33632 687.94218"
   version="1.1"
   id="svg195"
   sodipodi:docname="undraw_chef.svg"
   inkscape:version="0.92.4 (5da689c313, 2019-01-14)">
  <metadata
     id="metadata199">
    <rdf:RDF>
      <cc:Work
         rdf:about="">
        <dc:format>image/svg+xml</dc:format>
        <dc:type
           rdf:resource="http://purl.org/dc/dcmitype/StillImage" />
      </cc:Work>
    </rdf:RDF>
  </metadata>
  <sodipodi:namedview
     pagecolor="#ffffff"
     bordercolor="#666666"
     borderopacity="1"
     objecttolerance="10"
     gridtolerance="10"
     guidetolerance="10"
     inkscape:pageopacity="0"
     inkscape:pageshadow="2"
     inkscape:window-width="1920"
     inkscape:window-height="1016"
     id="namedview197"
     showgrid="false"
     inkscape:zoom="0.34068195"
     inkscape:cx="409.81113"
     inkscape:cy="341.57809"
     inkscape:window-x="1920"
     inkscape:window-y="27"
     inkscape:window-maximized="1"
     inkscape:current-layer="svg195" />
  <defs
     id="defs9">
    <linearGradient
       id="ef5d85de-35d2-4357-9719-f86a6844cb01-358"
       x1="507.94699"
       y1="790.48083"
       x2="507.94699"
       y2="154.92035"
       gradientUnits="userSpaceOnUse"
       gradientTransform="translate(-154.96539,-103.63591)">
      <stop
         offset="0"
         stop-color="gray"
         stop-opacity="0.25"
         id="stop2" />
      <stop
         offset="0.53514"
         stop-color="gray"
         stop-opacity="0.12"
         id="stop4" />
      <stop
         offset="1"
         stop-color="gray"
         stop-opacity="0.1"
         id="stop6" />
    </linearGradient>
  </defs>
  <title
     id="title11">Chef</title>
  <ellipse
     cx="324"
     cy="676.39484"
     rx="324"
     ry="11.54736"
     id="ellipse13"
     style="opacity:0.1;fill:#8183f4" />
  <path
     d="M 238.822,20.964221 C 259.46335,2.5702208 291.86348,-1.1785792 321.35546,0.28666087 413.9891,4.8889408 497.60903,49.610781 569.93946,100.19626 c 26.18453,18.31259 51.965,38.04815 68.96182,63.26626 34.6,51.336 24.33663,122.45291 -23.77551,164.74464 -16.36911,14.38883 -36.213,25.41943 -56.58481,35.19758 -36.22189,17.386 -75.30482,31.34322 -116.41616,35.31563 -29.317,2.83276 -58.99459,0.52985 -88.14,-3.42284 C 272.5546,384.25399 192.62517,359.83431 125.63261,318.0543 96.250007,299.72981 68.555247,276.9483 56.444227,247.304 c -12.11102,-29.6443 -4.36013,-67.20957 25.64255,-84.75625 12.40881,-7.25713 27.245063,-10.53475 41.770443,-13.61235 21.38048,-4.53006 43.10399,-8.9958 62.39822,-18.20536 19.92844,-9.51227 43.52576,-27.90745 39.58,-48.961999 -4.23377,-22.59095 -7.63063,-42.43135 12.98656,-60.80382 z"
     id="path15"
     inkscape:connector-curvature="0"
     style="opacity:0.1;fill:#8183f4" />
  <path
     d="m 451.93892,260.89401 c -1.411,-2.731 -8.8689,-19.70229 -8.8689,-19.70229 l -12.49705,-32.382 c 0,0 -8.86884,-13.655 -8.86884,-16.19095 0,-2.53595 -16.1252,-12.67968 -16.1252,-12.67968 0,0 -13.10173,-3.9014 -14.10958,-4.29159 -1.00785,-0.39019 -16.52832,-5.52446 -16.52832,-5.52446 0,0 -6.11152,-8.03693 -6.98217,-5.93793 l -7.6e-4,0.005 c -0.0318,-0.053 -0.0644,-0.0991 -0.096,-0.15356 a 20.75042,20.75042 0 0 1 -2.33,-7.51415 c -0.0332,-0.23368 -0.0616,-0.48042 -0.0913,-0.724 a 29.91071,29.91071 0 0 0 13.12839,-24.62757 29.51071,29.51071 0 0 0 -0.258,-3.82816 2.684,2.684 0 0 1 0.34667,-0.18255 c 0.25084,-0.10894 0.18725,-0.19752 0.003,-0.29 0.0632,-0.0331 0.12618,-0.0683 0.18972,-0.0953 0.33375,-0.145 0.11091,-0.25477 -0.21214,-0.38522 l 0.0194,-0.01 c 0.45474,-0.19758 -0.12028,-0.32846 -0.58218,-0.53738 -0.0248,-0.135 -0.0481,-0.27046 -0.0747,-0.40484 a 2.72261,2.72261 0 0 0 0.18516,-0.8038 c 0.041,0.0204 0.0784,0.0424 0.12174,0.0613 a 3.41427,3.41427 0 0 0 -0.008,-1.52588 2.68373,2.68373 0 0 1 -0.10489,0.2997 2.54714,2.54714 0 0 0 -1.17337,-2.30926 c -0.0231,-0.0202 -0.0486,-0.0419 -0.0723,-0.0623 l 0.855,-8.75135 c 12.60461,-0.59568 14.81591,-22.040119 11.94122,-23.231469 -2.87469,-1.19135 0,-3.77262 0,-8.9352 0,-5.16258 -9.50879,-10.92078 -9.50879,-10.92078 0,0 -3.9804,1.98564 -10.17211,-7.94234 -6.19171,-9.92798 -28.96849,-11.51646 -30.51641,-8.9352 -1.54792,2.58126 -11.72008,5.95682 -24.98808,9.72943 -13.268,3.77261 -10.83557,19.45886 -8.62427,22.83436 a 19.26588,19.26588 0 0 1 3.09589,9.33231 c 0,1.98558 4.20153,10.324999 4.20153,10.324999 -1.32513,2.8898 2.04731,18.72054 3.0461,23.21989 -0.0157,0.1383 -0.0324,0.27611 -0.0462,0.415 -0.008,0.0136 -0.0197,0.0251 -0.0279,0.0389 a 2.11907,2.11907 0 0 0 -0.129,0.22627 2.58938,2.58938 0 0 0 -0.20377,1.49241 3.11719,3.11719 0 0 0 0.22379,1.63083 29.75816,29.75816 0 0 0 10.55248,22.2022 c 0.0156,0.27071 0.0311,0.54326 0.0459,0.822 0.18553,3.67515 0.2903,8.02137 0.0968,12.18031 -0.01,0.21278 -0.0259,0.42114 -0.0375,0.63288 a 4.75934,4.75934 0 0 0 -3.373,2.65991 c -1.24969,2.4033 -8.50607,6.10971 -8.50607,6.10971 0,0 -12.69861,0.58519 -13.90795,2.92609 -1.20934,2.3409 -19.55187,10.14371 -19.55187,10.14371 0,0 -9.67507,5.65711 -8.26417,12.09448 0.73725,3.36372 -1.33241,8.58945 -3.47676,12.8149 a 60.8571,60.8571 0 0 0 -13.91473,-3.46959 l 10.2758,9.8307 c -0.2153,0.33606 -0.34217,0.52622 -0.34217,0.52622 l -5.84542,20.67761 c 0,0 -2.01563,7.21769 -4.03127,8.97333 -2.01564,1.75564 1.81408,17.75152 1.81408,17.75152 0,0 -2.21726,11.31422 -4.03133,14.24031 -1.81407,2.92609 2.82192,10.14371 2.82192,10.14371 l 9.272,21.06775 24.59092,6.2423 c 0,0 1.63868,0.34672 4.28674,0.91383 q -0.12486,0.75522 -0.25547,1.505 c -1.18514,6.71053 -2.74129,12.88258 -4.63594,14.5524 -4.636,4.09653 -4.43445,22.43325 -4.43445,22.43325 l 0.20156,25.9446 c 0,0 1.61252,31.99177 0.80623,33.16222 -0.5089,0.73875 0.51238,1.94353 3.207,3.02619 -0.0771,0.48153 -0.15266,0.97005 -0.22386,1.46825 -0.75783,5.306 -1.0964,11.361 0.64509,14.0374 a 10.66458,10.66458 0 0 1 1.20934,4.68173 c 0,2.536 3.82978,7.80288 3.82978,7.80288 0,0 -3.02349,21.653 2.01563,29.06568 5.03912,7.41268 9.272,20.87274 6.8532,23.99389 0,0 -4.23283,9.16839 -2.21719,13.26487 2.01564,4.09648 0,6.43736 -2.62037,7.41275 -2.62037,0.97539 -2.39455,8.97332 -2.39455,8.97332 l 4.81336,38.039 c 0,0 2.62031,7.80288 0.40312,10.53391 -2.21719,2.73103 -2.2172,16.386 1.2094,21.06774 3.4266,4.68174 -4.83756,13.26486 -4.83756,13.26486 0,0 -5.03912,7.21769 3.02348,9.55858 0,0 1.61253,0.39013 -1.411,3.51128 -3.02353,3.12115 -3.62816,7.02256 -1.61252,8.38807 a 9.22492,9.22492 0 0 0 1.3074,0.6495 c -0.0748,0.46235 -0.15583,0.9413 -0.25116,1.4495 -0.77411,4.073 -2.23334,9.379 -4.886,11.94619 a 85.15983,85.15983 0 0 0 -13.19845,17.58766 c -2.76548,5.24357 -3.97489,10.15156 -0.91106,12.4534 7.25632,5.46205 16.52833,7.21769 21.97056,5.07186 5.44223,-2.14583 13.10173,-8.7782 13.10173,-8.7782 l 1.81407,-7.60781 c 0,0 -1.20934,-4.68173 4.83757,-6.43737 6.04691,-1.75564 11.69082,-7.99794 11.69082,-7.99794 v -10.11231 a 42.85335,42.85335 0 0 0 4.23283,-2.76235 c 0,0 2.82192,-9.94871 0,-13.26492 -2.82192,-3.31621 -3.82972,-4.48667 -0.20156,-6.63244 3.62816,-2.14577 4.12,-6.82749 1.45936,-10.924 -2.66877,-4.09653 -6.90159,-10.14371 -3.27344,-18.72691 3.62815,-8.5832 4.95855,-34.91786 4.95855,-34.91786 0,0 -1.69316,-17.94665 0,-22.04312 1.69316,-4.09647 -1.93506,-12.28954 -1.93506,-12.28954 0,0 1.2094,-10.14378 3.4266,-14.8255 2.2172,-4.68172 4.03133,-29.45582 4.03133,-29.45582 0,0 4.03127,-10.5339 4.03127,-17.36139 0,-6.82749 -6.24853,-23.21358 3.02348,-27.50518 0,0 4.03128,3.51128 2.41875,17.55647 0,0 4.636,16.38607 4.636,21.45793 0,5.07186 3.4266,23.40863 3.4266,23.40863 0,0 0.40318,5.85218 1.81408,7.998 1.4109,2.14582 0,7.99794 0,7.99794 0,0 5.24074,4.87679 3.82977,7.99794 -1.41097,3.12115 0.24191,10.15935 0.24191,10.15935 l -1.24976,43.68049 c 0,0 -3.62815,18.72691 4.83757,30.04113 0,0 -3.02349,16.58108 -4.83757,17.75152 -1.81408,1.17044 6.65165,11.31416 6.65165,11.31416 0,0 -2.34648,6.57138 2.41881,6.89352 v 10.858 a 23.198,23.198 0 0 0 6.65164,7.41275 c 4.43445,3.12115 2.62031,13.85012 2.62031,13.85012 0,0 5.64385,13.65505 20.55965,10.729 14.9158,-2.92605 16.9315,-4.2916 16.12521,-9.16839 -0.29024,-1.779 -0.93519,-4.95483 -1.86247,-8.55978 -1.60448,-6.26566 -4.06351,-13.8267 -7.00636,-17.55646 -4.636,-5.87553 -8.46578,-18.16507 -8.46578,-18.16507 0,0 -1.81408,-4.09654 0,-5.462 1.81408,-1.36546 1.00785,-3.90141 1.00785,-3.90141 0,0 1.76568,-5.07185 0.17736,-8.193 -1.58832,-3.12115 3.04768,-9.55858 3.04768,-9.55858 l -1.411,-30.04107 1.411,-43.69606 c 0,0 -6.24853,-7.21769 -3.62816,-11.50929 2.62037,-4.2916 -3.02348,-10.33877 -3.02348,-10.33877 0,0 -0.60467,-0.19513 1.00785,-5.07192 a 12.15575,12.15575 0 0 0 -0.40318,-8.7782 c 0,0 -3.4266,-12.09448 2.62037,-21.26287 0,0 2.62037,-12.09442 3.4266,-18.33672 0.55628,-4.33843 4.03938,-20.545 6.11151,-30.02556 q 0.17568,-0.80367 0.33686,-1.53887 c 2.98478,0.16306 5.24239,0.35292 5.24239,0.35292 0,0 -4.636,-32.1869 0,-38.81933 4.636,-6.63243 -3.62816,-57.35118 -3.62816,-57.35118 0,0 -1.97528,-8.864 -3.19273,-17.9076 -0.0697,-0.51525 -0.1329,-1.03007 -0.19706,-1.54488 a 97.70834,97.70834 0 0 1 11.25084,-0.24975 c 9.67512,0.58519 19.14869,-3.12115 19.35025,-6.82756 0.20156,-3.70641 5.44223,-18.33672 6.24853,-21.65293 0.8063,-3.31621 1.41098,-14.6306 2e-5,-17.36156 z"
     id="path19"
     inkscape:connector-curvature="0"
     style="fill:url(#ef5d85de-35d2-4357-9719-f86a6844cb01-358)" />
  <path
     d="m 334.3256,637.21001 v 18.06259 c 0,0 -5.4382,6.21509 -11.26485,7.96308 -5.82665,1.74799 -4.66131,6.40931 -4.66131,6.40931 l -1.748,7.57464 c 0,0 -7.38041,6.60353 -12.62439,8.74 -5.24398,2.13647 -14.17817,0.38845 -21.17014,-5.04976 -2.9522,-2.29182 -1.78687,-7.17841 0.87789,-12.39911 a 84.5679,84.5679 0 0 1 12.71761,-17.511 c 2.556,-2.556 3.9621,-7.8388 4.708,-11.89412 0.55156,-3.03765 0.73022,-5.39159 0.73022,-5.39159 z"
     id="path21"
     inkscape:connector-curvature="0"
     style="fill:#4c495a" />
  <path
     d="m 334.3256,650.68896 v 4.58364 c 0,0 -5.4382,6.21509 -11.26485,7.96308 -5.82665,1.74799 -4.66131,6.40931 -4.66131,6.40931 l -1.748,7.57464 c 0,0 -7.38041,6.60353 -12.62439,8.74 -5.24398,2.13647 -14.17817,0.38845 -21.17014,-5.04976 -2.9522,-2.29182 -1.78687,-7.17841 0.87789,-12.39911 -0.12433,5.48481 1.49943,11.64551 9.41585,11.428 a 40.10393,40.10393 0 0 0 23.50079,-8.54575 c 0,0 -0.19422,-12.81861 8.74,-15.73193 a 27.21311,27.21311 0 0 0 8.93416,-4.97212 z"
     id="path23"
     inkscape:connector-curvature="0"
     style="opacity:0.1" />
  <path
     d="m 405.4106,683.43471 c -14.37239,2.91333 -19.81059,-10.68218 -19.81059,-10.68218 0,0 1.748,-10.68218 -2.52488,-13.78972 a 22.92017,22.92017 0 0 1 -6.40931,-7.38042 v -17.86837 l 17.47993,-12.43017 9.46242,8.3748 0.6371,0.55939 c 0,0 3.69021,12.23595 8.1573,18.08587 2.83565,3.71354 5.2051,11.24156 6.75109,17.47993 0.89354,3.58921 1.515,6.75114 1.79466,8.52247 0.77691,4.85553 -1.1653,6.21508 -15.53772,9.1284 z"
     id="path25"
     inkscape:connector-curvature="0"
     style="fill:#4c495a" />
  <path
     d="m 405.4106,683.43471 c -14.37239,2.91333 -19.81059,-10.68218 -19.81059,-10.68218 0,0 1.748,-10.68218 -2.52488,-13.78972 a 22.92017,22.92017 0 0 1 -6.40931,-7.38042 v -6.92207 c 2.77354,2.92887 8.002,8.60013 9.12841,11.00073 1.55377,3.30176 1.748,15.34349 8.93419,17.47993 7.18619,2.13644 21.17014,4.07865 22.33547,-1.35955 a 30.3,30.3 0 0 1 2.08977,-5.99759 c 0.89354,3.58921 1.515,6.75114 1.79466,8.52247 0.77691,4.85553 -1.1653,6.21508 -15.53772,9.1284 z"
     id="path27"
     inkscape:connector-curvature="0"
     style="opacity:0.1" />
  <path
     d="m 301.8906,633.71402 32.435,3.496 v 9.54791 c -3.65911,2.16749 -8.90308,4.46709 -11.84751,2.10537 -4.35054,-3.48048 -17.28571,-7.901 -21.3177,-9.75768 0.55154,-3.03766 0.73021,-5.3916 0.73021,-5.3916 z"
     id="path29"
     inkscape:connector-curvature="0"
     style="opacity:0.1" />
  <path
     d="m 404.2453,631.77181 c -4.46709,-1.55377 -12.43017,5.244 -22.91813,9.51685 a 10.91744,10.91744 0 0 1 -4.66132,1.041 v -8.61564 l 17.47993,-12.43017 9.46242,8.3748 a 11.81351,11.81351 0 0 0 0.6371,2.11316 z"
     id="path31"
     inkscape:connector-curvature="0"
     style="opacity:0.1" />
  <path
     d="m 415.70437,417.93399 c 0,0 -0.61377,2.85893 -1.49156,7.00747 -1.99665,9.43919 -5.35285,25.57512 -5.88886,29.8946 -0.77689,6.21509 -3.30176,18.25682 -3.30176,18.25682 -5.82665,9.12841 -2.52488,21.17014 -2.52488,21.17014 a 12.46759,12.46759 0 0 1 0.38844,8.74 c -1.55377,4.85554 -0.97111,5.04976 -0.97111,5.04976 0,0 5.4382,6.02087 2.91332,10.29374 -2.52488,4.27287 3.496,11.45906 3.496,11.45906 l -1.35955,43.50561 1.35955,29.9101 c 0,0 -4.46709,6.40931 -2.93665,9.51685 1.53044,3.10754 -0.17089,8.15731 -0.17089,8.15731 0,0 0.77688,2.52487 -0.97111,3.88442 -1.74799,1.35955 0,5.43821 0,5.43821 -4.46709,-1.55378 -12.43017,5.244 -22.91813,9.51685 -10.48796,4.27285 -6.992,-5.82665 -6.992,-5.82665 0,0 -8.1573,-10.09951 -6.40931,-11.26484 1.74799,-1.16533 4.66131,-17.67415 4.66131,-17.67415 -8.1573,-11.26485 -4.66131,-29.91011 -4.66131,-29.91011 l 1.20421,-43.4901 c 0,0 -1.59265,-7.00748 -0.2331,-10.115 1.35955,-3.10752 -3.69021,-7.96308 -3.69021,-7.96308 0,0 1.35955,-5.82664 0,-7.96308 -1.35955,-2.13644 -1.748,-7.96308 -1.748,-7.96308 0,0 -3.30176,-18.25681 -3.30176,-23.30657 0,-5.04976 -4.46709,-21.36436 -4.46709,-21.36436 1.55377,-13.984 -2.33066,-17.47993 -2.33066,-17.47993 -8.93419,4.27287 -2.91332,20.58747 -2.91332,27.38522 0,6.79775 -3.88443,17.28571 -3.88443,17.28571 0,0 -1.748,24.66613 -3.88443,29.32744 -2.13643,4.66131 -3.30177,14.76083 -3.30177,14.76083 0,0 3.496,8.1573 1.86455,12.236 -1.63145,4.0787 0,21.947 0,21.947 0,0 -1.28188,26.21989 -4.77787,34.76564 -3.49599,8.54575 0.58267,14.56661 3.1542,18.64526 2.56367,4.07865 2.08978,8.74 -1.4062,10.8764 -3.49598,2.1364 -2.52488,3.30176 0.19422,6.60353 2.7191,3.30177 0,13.20706 0,13.20706 0,0 -11.07063,8.74 -15.92616,4.85553 -4.85553,-3.88447 -20.39325,-8.93418 -22.33547,-10.29373 -1.94222,-1.35955 -1.35955,-5.244 1.55377,-8.35153 2.91332,-3.10753 1.35955,-3.496 1.35955,-3.496 -7.76886,-2.33066 -2.91332,-9.51685 -2.91332,-9.51685 0,0 7.96308,-8.54575 4.66132,-13.20706 -3.30176,-4.66131 -3.30177,-18.25682 -1.16533,-20.97592 2.13644,-2.7191 -0.38845,-10.488 -0.38845,-10.488 l -4.638,-37.87318 c 0,0 -0.21755,-7.96308 2.30733,-8.93419 2.52488,-0.97111 4.46709,-3.30176 2.52488,-7.38041 -1.94221,-4.07865 2.13643,-13.20706 2.13643,-13.20706 2.33066,-3.10755 -1.748,-16.50883 -6.60353,-23.88924 -4.85553,-7.38041 -1.94221,-28.939 -1.94221,-28.939 0,0 -3.69021,-5.244 -3.69021,-7.76886 a 10.88282,10.88282 0 0 0 -1.16533,-4.66131 c -1.678,-2.66471 -1.35177,-8.69336 -0.62155,-13.97617 0.707,-5.11192 1.78688,-9.52463 1.78688,-9.52463 z"
     id="path33"
     inkscape:connector-curvature="0"
     style="fill:#5f5d7e" />
  <path
     d="m 377.63696,197.88109 -38.26163,8.93419 c 0,0 -18.83948,-15.92616 -14.17816,-24.47191 1.60043,-2.93665 2.30733,-7.94757 2.54821,-13.24589 0.18644,-4.14082 0.0854,-8.46808 -0.0933,-12.12723 -0.2718,-5.29059 -0.7069,-9.1983 -0.7069,-9.1983 0,0 39.23274,-22.14124 37.87318,0 a 56.55407,56.55407 0 0 0 0.25644,11.06285 21.15008,21.15008 0 0 0 2.24511,7.48141 c 2.09756,3.73682 4.68465,3.79121 4.68465,3.79121 z"
     id="path35"
     inkscape:connector-curvature="0"
     style="fill:#fdc2cc" />
  <path
     d="m 365.07478,158.83479 a 30.09176,30.09176 0 0 1 -37.42272,-1.86455 c -0.2718,-5.29059 -0.7069,-9.1983 -0.7069,-9.1983 0,0 39.23274,-22.14124 37.87318,0 a 56.55407,56.55407 0 0 0 0.25644,11.06285 z"
     id="path37"
     inkscape:connector-curvature="0"
     style="opacity:0.1" />
  <circle
     cx="347.53265"
     cy="133.59378"
     id="circle39"
     style="fill:#fdc2cc"
     r="30.10433" />
  <path
     d="m 377.63696,197.88109 -38.26163,8.93419 c 0,0 -18.83948,-15.92616 -14.17816,-24.47191 1.60043,-2.93665 2.30733,-7.94757 2.54821,-13.24589 a 19.51946,19.51946 0 0 0 6.96864,11.69212 c 8.74,5.82664 7.38041,13.01284 7.38041,13.01284 l 15.73194,-0.58267 c -0.9711,-6.4093 4.85554,-9.90529 6.79775,-10.68218 1.94221,-0.77689 0.97111,-4.27287 0.97111,-4.27287 l 1.72466,-11.94851 c 2.09756,3.73682 4.68465,3.79121 4.68465,3.79121 z"
     id="path41"
     inkscape:connector-curvature="0"
     style="opacity:0.1" />
  <path
     d="m 415.70437,417.93399 c 0,0 -0.61377,2.85893 -1.49156,7.00747 -4.22631,-0.22528 -9.81217,-0.38844 -12.29817,0.17872 -4.27287,0.97111 -21.36436,1.35955 -21.36436,1.35955 l -42.34027,1.49936 v -1.30516 a 124.83888,124.83888 0 0 0 -14.56661,0.97111 c -7.1862,0.97111 -18.451,-0.38844 -25.63724,-1.55377 a 27.60533,27.60533 0 0 1 -6.44819,-1.74022 c 0.707,-5.11192 1.78688,-9.52463 1.78688,-9.52463 z"
     id="path43"
     inkscape:connector-curvature="0"
     style="opacity:0.1" />
  <path
     d="m 412.4026,294.60336 c -0.61377,3.62805 -0.16311,9.64113 0.61377,15.57655 1.17311,9.00413 3.07644,17.82954 3.07644,17.82954 0,0 7.96308,50.49758 3.496,57.10111 -4.46708,6.60353 0,38.65007 0,38.65007 0,0 -13.40128,-1.16533 -17.67415,-0.19422 -4.27287,0.97111 -21.36436,1.35955 -21.36436,1.35955 l -42.34027,1.49938 v -1.30516 a 124.83888,124.83888 0 0 0 -14.56661,0.97111 c -7.1862,0.9711 -18.451,-0.38845 -25.63724,-1.55377 -7.18624,-1.16532 -10.09951,-3.496 -9.32262,-4.66132 0.77689,-1.16532 -0.77689,-33.01765 -0.77689,-33.01765 l -0.19422,-25.83145 c 0,0 -0.19422,-18.25682 4.27287,-22.33547 1.82566,-1.66254 3.32509,-7.80769 4.46709,-14.48894 1.63922,-9.67223 2.52488,-20.47092 2.52488,-20.47092 l -29.52169,-79.04813 -0.58266,-1.55377 c 0,0 8.54574,-13.20706 7.18619,-19.61637 -1.35955,-6.40931 7.96308,-12.04173 7.96308,-12.04173 0,0 17.67415,-7.76886 18.83948,-10.09952 1.16533,-2.33066 13.40128,-2.91332 13.40128,-2.91332 0,0 6.992,-3.6902 8.19618,-6.083 a 4.59368,4.59368 0 0 1 3.25511,-2.64916 19.56032,19.56032 0 0 0 6.99975,11.83974 c 8.74,5.82664 7.38041,13.01283 7.38041,13.01283 l 15.73194,-0.58266 c -0.9711,-6.40931 4.85554,-9.90529 6.79775,-10.68218 1.94221,-0.77689 0.97111,-4.27287 0.97111,-4.27287 l 1.818,-12.57779 c 0.83891,-2.08982 6.72776,5.91209 6.72776,5.91209 0,0 14.95506,5.11193 15.92616,5.50037 0.9711,0.38844 13.59551,4.27287 13.59551,4.27287 0,0 15.53771,10.09952 15.53771,12.6244 0,2.52488 8.54575,16.12038 8.54575,16.12038 0,0 -0.101,0.54383 -0.28745,1.53821 -1.97323,10.70548 -13.6343,73.81968 -15.05606,82.1712 z"
     id="path45"
     inkscape:connector-curvature="0"
     style="fill:#8183f4" />
  <path
     d="m 350.25174,263.13949 c 0,0 -33.60032,-8.93419 -36.90208,-11.07063 -3.30176,-2.13644 -22.72391,10.29374 0.97111,27.191 0,0 28.97437,6.02086 36.72554,0 7.75117,-6.02086 -0.79457,-16.12037 -0.79457,-16.12037 z"
     id="path47"
     inkscape:connector-curvature="0"
     style="fill:#fdc2cc" />
  <path
     d="m 422.8906,209.92281 4.07865,0.19422 12.04173,32.24076 c 0,0 7.18619,16.89727 8.54574,19.61637 1.35955,2.7191 0.77689,13.98394 0,17.28571 -0.77689,3.30177 -5.82664,17.86837 -6.02086,21.55858 -0.19422,3.69021 -9.32263,7.38041 -18.64526,6.79775 -9.32263,-0.58266 -31.07543,2.33066 -31.07543,2.33066 0,0 -23.23131,-2.42817 -37.48474,4.85553 0,0 -9.12841,-18.83948 -8.1573,-53.99356 0,0 16.12038,-0.97111 20.199,0.58266 4.07862,1.55377 23.88924,6.02087 26.41411,3.69021 2.52487,-2.33066 13.984,4.27287 13.984,4.27287 a 9.84326,9.84326 0 0 0 0,-8.1573 c -1.94222,-4.66131 -5.244,-19.22792 -0.97111,-23.88924 4.27289,-4.66132 17.09147,-27.38522 17.09147,-27.38522 z"
     id="path49"
     inkscape:connector-curvature="0"
     style="opacity:0.1" />
  <path
     d="m 413.01637,310.17991 c -9.64118,0.65261 -20.42436,2.0976 -20.42436,2.0976 0,0 -23.2289,-2.43165 -37.48474,4.85554 0,0 -9.12841,-18.83948 -8.1573,-53.99356 0,0 16.12038,-0.97111 20.199,0.58266 4.07862,1.55377 23.88924,6.02087 26.41412,3.69021 2.52488,-2.33066 13.98394,4.27287 13.98394,4.27287 a 9.84322,9.84322 0 0 0 0,-8.1573 c -1.94221,-4.66131 -5.244,-19.22792 -0.9711,-23.88924 4.2729,-4.66132 17.09149,-27.38522 17.09149,-27.38522 l 3.7912,0.17866 c -1.97322,10.70551 -13.63429,73.81971 -15.056,82.17123 -0.61379,3.62805 -0.16313,9.64113 0.61375,15.57655 z"
     id="path51"
     inkscape:connector-curvature="0"
     style="opacity:0.1" />
  <path
     d="m 423.66745,210.69969 4.07865,0.19423 12.04173,32.24076 c 0,0 7.18619,16.89726 8.54574,19.61636 1.35955,2.7191 0.77689,13.98395 0,17.28571 -0.77689,3.30176 -5.82664,17.86838 -6.02086,21.55858 -0.19422,3.6902 -9.32263,7.38042 -18.64526,6.79776 -9.32263,-0.58266 -31.07544,2.33065 -31.07544,2.33065 0,0 -23.2313,-2.42817 -37.48474,4.85554 0,0 -9.12841,-18.83948 -8.1573,-53.99356 0,0 16.12038,-0.97111 20.199,0.58266 4.07862,1.55377 23.88924,6.02086 26.41412,3.69021 2.52488,-2.33065 13.98394,4.27287 13.98394,4.27287 a 9.84322,9.84322 0 0 0 0,-8.1573 c -1.94221,-4.66132 -5.244,-19.22793 -0.9711,-23.88924 4.2729,-4.66131 17.09152,-27.38523 17.09152,-27.38523 z"
     id="path53"
     inkscape:connector-curvature="0"
     style="fill:#8183f4" />
  <rect
     x="-479.49689"
     y="-38.360565"
     width="5.7000198"
     height="51.300209"
     transform="rotate(-148.23485)"
     id="rect55"
     style="fill:#dfe6f5" />
  <ellipse
     cx="25.25173"
     cy="476.64691"
     rx="16.416071"
     ry="11.51405"
     transform="rotate(-58.23485)"
     id="ellipse57"
     style="fill:#dfe6f5" />
  <ellipse
     cx="25.25173"
     cy="476.64691"
     rx="11.78341"
     ry="8.2647495"
     transform="rotate(-58.23485)"
     id="ellipse59"
     style="opacity:0.1" />
  <rect
     x="-479.49689"
     y="-64.580658"
     width="5.7000198"
     height="31.92013"
     transform="rotate(-148.23485)"
     id="rect61"
     style="fill:#53526b" />
  <path
     d="m 340.34644,306.25665 11.84751,-3.30176 c 0,0 58.46066,1.55377 38.84429,-22.52969 0,0 -10.29374,-9.9053 -31.85232,-1.94222 -21.55858,7.96308 -27.57944,8.93419 -27.57944,8.93419 z"
     id="path63"
     inkscape:connector-curvature="0"
     style="fill:#fdc2cc" />
  <circle
     cx="331.60648"
     cy="202.34818"
     id="circle65"
     style="opacity:0.1"
     r="2.3306601" />
  <circle
     cx="371.61612"
     cy="200.98863"
     id="circle67"
     style="opacity:0.1"
     r="2.3306601" />
  <circle
     cx="331.60648"
     cy="201.57129"
     id="circle69"
     style="fill:#ffffff"
     r="2.3306601" />
  <circle
     cx="334.90826"
     cy="234.58894"
     id="circle71"
     style="opacity:0.1"
     r="2.3306601" />
  <circle
     cx="372.78143"
     cy="232.25829"
     id="circle73"
     style="opacity:0.1"
     r="2.3306601" />
  <circle
     cx="334.90826"
     cy="233.81206"
     id="circle75"
     style="fill:#ffffff"
     r="2.3306601" />
  <circle
     cx="371.81033"
     cy="344.72574"
     id="circle77"
     style="opacity:0.1"
     r="2.3306601" />
  <circle
     cx="341.13681"
     cy="344.72574"
     id="circle79"
     style="opacity:0.1"
     r="2.3306601" />
  <circle
     cx="371.81033"
     cy="343.94885"
     id="circle81"
     style="fill:#ffffff"
     r="2.3306601" />
  <circle
     cx="343.46747"
     cy="383.75101"
     id="circle83"
     style="opacity:0.1"
     r="2.3306601" />
  <circle
     cx="372.78143"
     cy="381.42035"
     id="circle85"
     style="opacity:0.1"
     r="2.3306601" />
  <circle
     cx="343.46747"
     cy="382.97412"
     id="circle87"
     style="fill:#ffffff"
     r="2.3306601" />
  <circle
     cx="341.13681"
     cy="343.94885"
     id="circle89"
     style="fill:#ffffff"
     r="2.3306601" />
  <circle
     cx="372.78143"
     cy="380.64346"
     id="circle91"
     style="fill:#ffffff"
     r="2.3306601" />
  <circle
     cx="371.61612"
     cy="200.21175"
     id="circle93"
     style="fill:#ffffff"
     r="2.3306601" />
  <circle
     cx="372.78143"
     cy="231.48138"
     id="circle95"
     style="fill:#ffffff"
     r="2.3306601" />
  <path
     d="m 376.27741,313.24862 c 0,0 0.38844,53.21668 1.55377,62.73353 0,0 0.42303,-60.22479 -1.55377,-62.73353 z"
     id="path97"
     inkscape:connector-curvature="0"
     style="opacity:0.1" />
  <path
     d="m 386.1827,337.91475 c -0.80079,0 15.92616,62.34508 16.703,66.81218 0.77684,4.4671 -12.04168,-66.81218 -16.703,-66.81218 z"
     id="path99"
     inkscape:connector-curvature="0"
     style="opacity:0.1" />
  <path
     d="m 399.38976,327.81523 c 0,0.58267 9.32263,33.79453 13.984,35.54253 4.66137,1.748 -13.984,-35.54253 -13.984,-35.54253 z"
     id="path101"
     inkscape:connector-curvature="0"
     style="opacity:0.1" />
  <path
     d="m 436.0976,263.13949 c 0,0 -19.81059,0.883 -20.39325,3.74327 -0.58266,2.86027 20.39325,-3.74327 20.39325,-3.74327 z"
     id="path103"
     inkscape:connector-curvature="0"
     style="opacity:0.1" />
  <path
     d="m 401.13776,516.40426 c 0,0 -14.17817,6.02087 -12.04173,6.40931 2.13644,0.38844 12.04173,-6.40931 12.04173,-6.40931 z"
     id="path105"
     inkscape:connector-curvature="0"
     style="opacity:0.1" />
  <path
     d="m 371.81032,507.47009 c -0.55217,-1.24238 9.51685,5.04975 9.51685,5.82664 0,0.77689 -8.73997,-4.07864 -9.51685,-5.82664 z"
     id="path107"
     inkscape:connector-curvature="0"
     style="opacity:0.1" />
  <path
     d="m 385.01738,527.86333 c 0,0 11.07062,-0.55859 11.8475,3.70224 0.77688,4.26083 -11.8475,-3.70224 -11.8475,-3.70224 z"
     id="path109"
     inkscape:connector-curvature="0"
     style="opacity:0.1" />
  <path
     d="m 305.3866,527.83922 c 0,0 12.04173,-2.35476 13.01284,0 0.97111,2.35476 -13.01284,0 -13.01284,0 z"
     id="path111"
     inkscape:connector-curvature="0"
     style="opacity:0.1" />
  <path
     d="m 309.85367,601.08482 c 0,0 0.78964,9.90529 -2.13006,12.236 -2.9197,2.33071 2.13006,-12.236 2.13006,-12.236 z"
     id="path113"
     inkscape:connector-curvature="0"
     style="opacity:0.1" />
  <path
     d="m 308.38292,622.06073 c 3.80141,0.38845 23.80622,-3.10754 23.612,0 -0.19422,3.10754 -23.612,0 -23.612,0 z"
     id="path115"
     inkscape:connector-curvature="0"
     style="opacity:0.1" />
  <path
     d="m 400.16665,610.019 c 0,0 -6.82282,-1.04863 -5.1594,3.55434 z"
     id="path117"
     inkscape:connector-curvature="0"
     style="opacity:0.1" />
  <path
     d="m 273.34004,222.35298 h -3.69021 l -5.63242,20.58748 c 0,0 -1.94221,7.18619 -3.88443,8.93418 -1.94222,1.74799 1.748,17.67416 1.748,17.67416 0,0 -2.13643,11.26484 -3.88442,14.17816 -1.74799,2.91332 2.7191,10.09952 2.7191,10.09952 l 8.93418,20.97591 23.695,6.21509 c 0,0 41.75761,9.12841 43.69983,10.488 1.94222,1.35959 3.6902,-0.58267 5.04975,-13.20706 1.35955,-12.62439 5.04976,-37.0963 7.96308,-38.26163 0,0 -23.30657,2.52488 -25.24878,2.13644 -1.94221,-0.38844 -11.26485,0.19422 -11.26485,0.19422 0,0 -12.236,-0.77688 -14.17816,0.38844 -1.94216,1.16532 2.52487,-5.64117 2.52487,-5.64117 a 18.73107,18.73107 0 0 0 0,-9.5081 c -1.35954,-5.24402 -2.13642,-64.67578 -28.55054,-45.25364 z"
     id="path119"
     inkscape:connector-curvature="0"
     style="opacity:0.1" />
  <path
     d="m 349.2806,282.36741 c -2.91332,1.16533 -6.60353,25.63723 -7.96308,38.26163 -1.35955,12.6244 -3.10754,14.56661 -5.04976,13.20706 -1.5771,-1.10322 -29.41288,-7.33381 -39.8154,-9.63341 1.63922,-9.67223 2.52488,-20.47092 2.52488,-20.47092 L 269.4556,224.68364 h 3.10754 c 26.41412,-19.42215 27.191,40.00962 28.55056,45.2536 a 18.73557,18.73557 0 0 1 0,9.50907 c 0,0 -4.4671,6.80553 -2.52488,5.6402 1.94222,-1.16533 14.17817,-0.38844 14.17817,-0.38844 0,0 9.32263,-0.58267 11.26484,-0.19422 1.94221,0.38845 25.24877,-2.13644 25.24877,-2.13644 z"
     id="path121"
     inkscape:connector-curvature="0"
     style="opacity:0.1" />
  <path
     d="m 272.56315,223.12987 h -3.6902 l -5.63243,20.58747 c 0,0 -1.94221,7.1862 -3.88442,8.93419 -1.94221,1.74799 1.748,17.67415 1.748,17.67415 0,0 -2.13644,11.26485 -3.88443,14.17817 -1.74799,2.91332 2.7191,10.09951 2.7191,10.09951 l 8.93419,20.97592 23.695,6.21509 c 0,0 41.75762,9.1284 43.69983,10.488 1.94221,1.3596 3.69021,-0.58266 5.04976,-13.207 1.35955,-12.62434 5.04976,-37.0963 7.96308,-38.26163 0,0 -23.30658,2.52488 -25.24879,2.13644 -1.94221,-0.38844 -11.26484,0.19422 -11.26484,0.19422 0,0 -12.236,-0.77689 -14.17817,0.38844 -1.94217,1.16533 2.52488,-5.64117 2.52488,-5.64117 a 18.73107,18.73107 0 0 0 0,-9.5081 c -1.35955,-5.24408 -2.13644,-64.67585 -28.55056,-45.2537 z"
     id="path123"
     inkscape:connector-curvature="0"
     style="fill:#8183f4" />
  <path
     d="m 285.1876,293.43803 c 0,0 -10.68218,20.199 -12.6244,17.86838 -1.94222,-2.33062 12.6244,-17.86838 12.6244,-17.86838 z"
     id="path125"
     inkscape:connector-curvature="0"
     style="opacity:0.1" />
  <path
     d="m 274.11693,281.93581 c 0,0 -9.9053,8.20046 -5.244,10.3369 4.6613,2.13644 5.244,-10.3369 5.244,-10.3369 z"
     id="path127"
     inkscape:connector-curvature="0"
     style="opacity:0.1" />
  <path
     d="m 283.4396,271.87945 c 0.77688,0.19422 14.37238,2.89446 14.5666,4.06922 0.19422,1.17476 -14.5666,-4.06922 -14.5666,-4.06922 z"
     id="path129"
     inkscape:connector-curvature="0"
     style="opacity:0.1" />
  <path
     d="m 377.72241,129.60057 a 2.0024,2.0024 0 0 0 -1.32845,2.08205 c -0.79244,0.69922 -1.90342,-0.12428 -2.54821,-1.01772 -0.65255,-0.88566 -1.39056,-1.98105 -2.37722,-1.85677 a 8.53381,8.53381 0 0 0 -1.35955,0.56716 c -1.55377,0.49717 -2.86676,-1.32849 -3.73686,-2.92887 q -2.27234,-4.20683 -4.54477,-8.40591 c -3.03765,1.76354 -6.62686,-0.0855 -9.64118,-1.91116 -3.01432,-1.82571 -6.60353,-3.68243 -9.64886,-1.91888 -4.46709,2.57926 -4.6303,11.17939 -9.26051,13.30028 -1.49166,0.68366 -3.2241,0.536 -4.607,1.4761 -1.36733,0.93223 -2.10533,2.72683 -2.71911,4.44376 a 4.70682,4.70682 0 0 1 -1.52266,2.50933 3.34505,3.34505 0 0 1 -1.56933,0.38071 6.73247,6.73247 0 0 1 -4.03976,-0.56715 3.41411,3.41411 0 0 1 -1.39844,-4.03982 2.11367,2.11367 0 0 1 0.12433,-0.22528 14.13716,14.13716 0 0 0 1.33622,-1.91889 c 0.46612,-1.23526 -0.202,-2.67248 -0.0543,-4.00875 0.24079,-2.28405 2.65689,-3.48821 3.06866,-5.73342 0.1709,-0.87789 -0.008,-1.81789 0.15534,-2.70355 a 2.45774,2.45774 0 0 1 0.0933,-0.34183 l -1.42176,0.97888 c 1.59265,-1.85677 2.39287,-4.436 3.5582,-6.689 a 20.59983,20.59983 0 0 1 12.57,-10.23163 c 5.06531,-1.475999 10.418,-1.072099 15.52994,0.17872 a 51.1399,51.1399 0 0 1 13.82082,5.69454 13.7148,13.7148 0 0 1 4.02422,3.27071 25.19186,25.19186 0 0 1 2.38509,4.40493 c 1.50712,3.12309 5.62465,6.01308 2.34621,6.44814 -2.72687,0.36516 -0.24088,2.27632 1.18866,3.56592 a 3.70821,3.70821 0 0 1 0.82345,0.90117 3.22569,3.22569 0 0 1 -0.171,3.11532 c -0.55156,0.69925 1.68597,0.83908 0.92455,1.18091 z"
     id="path131"
     inkscape:connector-curvature="0"
     style="opacity:0.1" />
  <path
     d="m 377.72241,128.82369 a 2.00239,2.00239 0 0 0 -1.32845,2.08205 c -0.79244,0.69921 -1.90342,-0.12429 -2.54821,-1.01772 -0.65255,-0.88566 -1.39056,-1.98105 -2.37722,-1.85677 a 8.53289,8.53289 0 0 0 -1.35955,0.56716 c -1.55377,0.49717 -2.86676,-1.32849 -3.73686,-2.92888 q -2.27234,-4.20681 -4.54477,-8.40591 c -3.03765,1.76355 -6.62686,-0.0854 -9.64118,-1.91115 -3.01432,-1.82571 -6.60353,-3.68244 -9.64886,-1.91889 -4.46709,2.57927 -4.6303,11.1794 -9.26051,13.30028 -1.49166,0.68367 -3.2241,0.53606 -4.607,1.4761 -1.36733,0.93223 -2.10533,2.72683 -2.71911,4.44377 a 4.70683,4.70683 0 0 1 -1.52266,2.50932 3.34506,3.34506 0 0 1 -1.56933,0.38072 6.73255,6.73255 0 0 1 -4.03976,-0.56716 3.4141,3.4141 0 0 1 -1.39844,-4.03982 2.11367,2.11367 0 0 1 0.12433,-0.22528 14.13706,14.13706 0 0 0 1.33622,-1.91888 c 0.46612,-1.23527 -0.202,-2.67249 -0.0543,-4.00876 0.24079,-2.284 2.65689,-3.48821 3.06866,-5.73342 0.1709,-0.87788 -0.008,-1.81789 0.15534,-2.70355 a 2.45812,2.45812 0 0 1 0.0933,-0.34183 l -1.42176,0.97888 c 1.59265,-1.85676 2.39287,-4.436 3.5582,-6.689 a 20.59981,20.59981 0 0 1 12.57,-10.23162 c 5.06531,-1.476059 10.418,-1.072109 15.52994,0.17871 a 51.14022,51.14022 0 0 1 13.82082,5.69454 13.7148,13.7148 0 0 1 4.02422,3.27071 25.19186,25.19186 0 0 1 2.38509,4.40493 c 1.50712,3.1231 5.62465,6.01309 2.34621,6.44814 -2.72687,0.36516 -0.24088,2.27632 1.18866,3.56593 a 3.70784,3.70784 0 0 1 0.82345,0.90117 3.22569,3.22569 0 0 1 -0.171,3.11532 c -0.55156,0.69924 1.68597,0.83908 0.92455,1.18091 z"
     id="path133"
     inkscape:connector-curvature="0"
     style="fill:#865a61" />
  <path
     d="m 376.1454,123.62632 -0.31087,3.27071 c 0,0 -32.5981,-41.314789 -57.95557,5.3372 0,0 -0.12442,-0.56716 -0.3341,-1.52272 a 14.13706,14.13706 0 0 0 1.33622,-1.91888 c 0.46612,-1.23527 -0.202,-2.67249 -0.0543,-4.00876 0.24079,-2.284 2.65689,-3.48821 3.06866,-5.73342 0.1709,-0.87788 -0.008,-1.81789 0.15534,-2.70355 a 2.45812,2.45812 0 0 1 0.0933,-0.34183 l -1.42176,0.97888 c 1.59265,-1.85676 2.39287,-4.436 3.5582,-6.689 a 20.59981,20.59981 0 0 1 12.57,-10.23162 c 5.06531,-1.476059 10.418,-1.072109 15.52994,0.17871 a 51.14022,51.14022 0 0 1 13.82082,5.69454 13.7148,13.7148 0 0 1 4.02422,3.27071 25.19186,25.19186 0 0 1 2.38509,4.40493 c 1.50712,3.1231 5.62465,6.01309 2.34621,6.44814 -2.72691,0.36519 -0.24092,2.27635 1.18862,3.56596 z"
     id="path135"
     inkscape:connector-curvature="0"
     style="opacity:0.1" />
  <g
     id="g147"
     style="opacity:0.1"
     transform="translate(-8.5585937e-6)">
    <path
       d="m 531.91464,232.03646 a 1.57413,1.57413 0 0 0 -0.36957,1.34466 c -0.79244,0.69921 -1.90343,-0.12428 -2.54821,-1.01772 -0.65256,-0.88566 -1.39056,-1.98105 -2.37722,-1.85677 a 8.53343,8.53343 0 0 0 -1.35955,0.56716 c -1.55378,0.49717 -2.86676,-1.32849 -3.73687,-2.92887 q -2.27234,-4.20683 -4.54476,-8.40591 c -3.03765,1.76354 -6.62686,-0.0855 -9.64118,-1.91116 -3.01432,-1.82571 -6.60353,-3.68243 -9.64886,-1.91889 -4.4671,2.57927 -4.63031,11.1794 -9.26052,13.30029 -1.49165,0.68366 -3.22409,0.536 -4.607,1.4761 -1.36733,0.93222 -2.10533,2.72683 -2.7191,4.44376 a 4.70691,4.70691 0 0 1 -1.52267,2.50933 3.345,3.345 0 0 1 -1.56932,0.38071 6.73257,6.73257 0 0 1 -4.03977,-0.56716 3.63373,3.63373 0 0 1 -1.51394,-2.13567 3.49314,3.49314 0 0 0 1.51394,3.68944 6.7325,6.7325 0 0 0 4.03977,0.56716 3.345,3.345 0 0 0 1.56932,-0.38071 4.70691,4.70691 0 0 0 1.52267,-2.50933 c 0.61377,-1.71693 1.35177,-3.51154 2.7191,-4.44376 1.38288,-0.94005 3.11532,-0.79244 4.607,-1.4761 4.63021,-2.12089 4.79342,-10.721 9.26052,-13.30028 3.04533,-1.76355 6.63454,0.0932 9.64886,1.91888 3.01432,1.82566 6.60353,3.6747 9.64118,1.91116 q 2.27233,4.19516 4.54476,8.40591 c 0.87011,1.60038 2.18309,3.426 3.73687,2.92887 a 8.53343,8.53343 0 0 1 1.35955,-0.56716 c 0.98666,-0.12428 1.72466,0.97111 2.37722,1.85677 0.64478,0.89344 1.75577,1.71694 2.54821,1.01772 a 2.00239,2.00239 0 0 1 1.32844,-2.08205 c 0.60571,-0.27184 -0.68251,-0.41694 -0.95887,-0.81638 z"
       transform="translate(-154.96538,-103.63591)"
       id="path137"
       inkscape:connector-curvature="0" />
    <path
       d="m 529.3743,224.27471 a 2.81313,2.81313 0 0 1 0.73355,-0.18516 c 1.44547,-0.19181 1.45154,-0.86167 0.87911,-1.81746 a 2.27194,2.27194 0 0 1 -0.87911,0.26369 c -1.55985,0.20887 -1.41171,0.92402 -0.73355,1.73893 z"
       transform="translate(-154.96538,-103.63591)"
       id="path139"
       inkscape:connector-curvature="0" />
    <path
       d="m 532.3505,230.78222 a 3.50987,3.50987 0 0 0 -0.008,-1.5192 2.2409,2.2409 0 0 1 -0.39356,0.85517 c -0.24332,0.30845 0.0563,0.50793 0.40156,0.66403 z"
       transform="translate(-154.96538,-103.63591)"
       id="path141"
       inkscape:connector-curvature="0" />
    <path
       d="m 474.0228,228.54431 c -0.0165,0.0888 -0.0353,0.17654 -0.045,0.26872 a 8.91195,8.91195 0 0 0 0.15173,2.08835 7.34919,7.34919 0 0 0 -0.10673,-2.35707 z"
       transform="translate(-154.96538,-103.63591)"
       id="path143"
       inkscape:connector-curvature="0" />
    <path
       d="m 477.17681,219.06587 a 11.268,11.268 0 0 1 -1.30341,1.94724 l 1.25391,-0.86333 a 8.68832,8.68832 0 0 1 0.0495,-1.08391 z"
       transform="translate(-154.96538,-103.63591)"
       id="path145"
       inkscape:connector-curvature="0" />
  </g>
  <path
     d="m 317.87729,131.45734 c 0,0 -4.68769,-20.95555 -3.19615,-24.31635 0,0 -4.04846,-8.303139 -4.04846,-10.280079 a 19.63138,19.63138 0 0 0 -2.98308,-9.29162 c -2.13077,-3.36079 -4.47462,-18.97861 8.31,-22.7348 12.78462,-3.75619 22.58616,-7.117 24.0777,-9.687 1.49154,-2.57 23.43846,-0.98847 29.40462,8.89623 5.96616,9.8847 9.80154,7.90776 9.80154,7.90776 0,0 9.16231,5.73312 9.16231,10.87316 0,5.14004 -2.77,7.71006 0,8.89623 2.77,1.18617 0.63923,22.537099 -11.50616,23.130179 l -1.06538,11.26856 c 0,0 -32.60078,-41.318029 -57.95694,5.33773 z"
     id="path149"
     inkscape:connector-curvature="0"
     style="fill:#8183f4" />
  <path
     d="m 319.27341,68.918031 c 0,0 -2.81621,16.50883 2.33066,22.04414 z"
     id="path151"
     inkscape:connector-curvature="0"
     style="opacity:0.1" />
  <path
     d="m 332.48047,65.130711 c 0,0 -7.18619,17.67416 -5.4382,21.073 z"
     id="path153"
     inkscape:connector-curvature="0"
     style="opacity:0.1" />
  <path
     d="m 338.6956,59.498291 c 0,0 -4.85554,23.01524 -2.52488,24.86035 z"
     id="path155"
     inkscape:connector-curvature="0"
     style="opacity:0.1" />
  <path
     d="m 347.04708,65.713381 c 0,0 -6.02086,14.76083 -3.59309,16.80015 z"
     id="path157"
     inkscape:connector-curvature="0"
     style="opacity:0.1" />
  <path
     d="m 358.40904,67.461371 c 0,0 -7.08909,12.04173 -5.63243,14.17817 z"
     id="path159"
     inkscape:connector-curvature="0"
     style="opacity:0.1" />
  <path
     d="m 372.97565,79.211771 c 0,0 -7.57464,2.03933 -6.02087,4.46709 z"
     id="path161"
     inkscape:connector-curvature="0"
     style="opacity:0.1" />
  <path
     d="m 380.16184,91.739091 c 0,0 -6.79775,3.30177 -5.53531,5.04976 z"
     id="path163"
     inkscape:connector-curvature="0"
     style="opacity:0.1" />
  <path
     d="m 314.68114,107.14099 c 0,0 43.41853,-17.636189 62.21847,7.71006 -10e-6,4e-5 -22.81958,-19.402019 -62.21847,-7.71006 z"
     id="path165"
     inkscape:connector-curvature="0"
     style="opacity:0.1" />
  <polygon
     points="316.096,268.961 300.365,253.411 298.991,252.052 305.041,245.932 322.146,262.84 "
     id="polygon167"
     style="fill:#53526b"
     transform="translate(-8.5585937e-6)" />
  <path
     d="m 259.30127,212.81809 c 0,0 26.47922,2.25328 51.124,29.99265 l -10.27179,10.391 z"
     id="path169"
     inkscape:connector-curvature="0"
     style="fill:#dfe6f5" />
  <path
     d="m 338.72435,262.41685 c 0,0 -25.45044,-9.27767 -27.95135,-11.49625 -2.50091,-2.21858 -17.21215,10.68949 0.73556,28.23639 0,0 21.94654,6.25234 27.81764,0 5.8711,-6.25234 -0.60185,-16.74014 -0.60185,-16.74014 z"
     id="path171"
     inkscape:connector-curvature="0"
     style="fill:#fdc2cc" />
</svg>
